<svg width="84" height="84" viewBox="0 0 84 84" fill="none" xmlns="http://www.w3.org/2000/svg">
<path d="M77.5 59.8618L84 66.1377V53.586L77.5 59.8618Z" fill="#00BABA" fill-opacity="0.3"/>
<path d="M77.5 77.7241L84 84V71.4483L77.5 77.7241Z" fill="#00BABA" fill-opacity="0.3"/>
<path d="M77.5 42L84 48.2759V35.7241L77.5 42Z" fill="#00BABA" fill-opacity="0.3"/>
<path d="M77.5 24.1377L84 30.4136V17.8618L77.5 24.1377Z" fill="#00BABA" fill-opacity="0.3"/>
<path d="M77.5 6.27592L84 12.5518V2.36363e-05L77.5 6.27592Z" fill="#00BABA" fill-opacity="0.3"/>
<path d="M62 59.8618L68.5 66.1377V53.586L62 59.8618Z" fill="#00BABA" fill-opacity="0.3"/>
<path d="M62 77.7241L68.5 84V71.4483L62 77.7241Z" fill="#00BABA" fill-opacity="0.3"/>
<path d="M62 42L68.5 48.2759V35.7241L62 42Z" fill="#00BABA" fill-opacity="0.3"/>
<path d="M62 24.1377L68.5 30.4136V17.8618L62 24.1377Z" fill="#00BABA" fill-opacity="0.3"/>
<path d="M62 6.27592L68.5 12.5518V2.36363e-05L62 6.27592Z" fill="#00BABA" fill-opacity="0.3"/>
<path d="M46.5 59.8618L53 66.1377V53.586L46.5 59.8618Z" fill="#00BABA" fill-opacity="0.3"/>
<path d="M46.5 77.7241L53 84V71.4483L46.5 77.7241Z" fill="#00BABA" fill-opacity="0.3"/>
<path d="M46.5 42L53 48.2759V35.7241L46.5 42Z" fill="#00BABA" fill-opacity="0.3"/>
<path d="M46.5 24.1377L53 30.4136V17.8618L46.5 24.1377Z" fill="#00BABA" fill-opacity="0.3"/>
<path d="M46.5 6.27592L53 12.5518V2.36363e-05L46.5 6.27592Z" fill="#00BABA" fill-opacity="0.3"/>
<path d="M31 59.8618L37.5 66.1377V53.586L31 59.8618Z" fill="#00BABA" fill-opacity="0.3"/>
<path d="M31 77.7241L37.5 84V71.4483L31 77.7241Z" fill="#00BABA" fill-opacity="0.3"/>
<path d="M31 42L37.5 48.2759V35.7241L31 42Z" fill="#00BABA" fill-opacity="0.3"/>
<path d="M31 24.1377L37.5 30.4136V17.8618L31 24.1377Z" fill="#00BABA" fill-opacity="0.3"/>
<path d="M31 6.27592L37.5 12.5518V2.36363e-05L31 6.27592Z" fill="#00BABA" fill-opacity="0.3"/>
<path d="M15.5 59.8618L22 66.1377V53.586L15.5 59.8618Z" fill="#00BABA" fill-opacity="0.3"/>
<path d="M15.5 77.7241L22 84V71.4483L15.5 77.7241Z" fill="#00BABA" fill-opacity="0.3"/>
<path d="M15.5 42L22 48.2759V35.7241L15.5 42Z" fill="#00BABA" fill-opacity="0.3"/>
<path d="M15.5 24.1377L22 30.4136V17.8618L15.5 24.1377Z" fill="#00BABA" fill-opacity="0.3"/>
<path d="M15.5 6.27592L22 12.5518V2.36363e-05L15.5 6.27592Z" fill="#00BABA" fill-opacity="0.3"/>
<path d="M0 59.8618L6.5 66.1377L6.5 53.586L0 59.8618Z" fill="#00BABA" fill-opacity="0.3"/>
<path d="M0 77.7241L6.5 84L6.5 71.4483L0 77.7241Z" fill="#00BABA" fill-opacity="0.3"/>
<path d="M0 42L6.5 48.2759L6.5 35.7241L0 42Z" fill="#00BABA" fill-opacity="0.3"/>
<path d="M0 24.1377L6.5 30.4136L6.5 17.8618L0 24.1377Z" fill="#00BABA" fill-opacity="0.3"/>
<path d="M0 6.27592L6.5 12.5518L6.5 2.36363e-05L0 6.27592Z" fill="#00BABA" fill-opacity="0.3"/>
</svg>
