<svg width="268" height="169" viewBox="0 0 268 169" fill="none" xmlns="http://www.w3.org/2000/svg">
<g opacity="0.15">
<path d="M261.269 53.9858L260.942 53.7358C265.292 48.0255 267.591 41.2038 267.591 34.0053C267.591 22.8537 261.981 12.5943 252.582 6.56094L252.805 6.21484C262.323 12.3213 268.003 22.7114 268.003 34.0053C268.003 41.2922 265.672 48.2023 261.269 53.9858Z" fill="#00BABA"/>
<path d="M235.003 67.0018C216.806 67.0018 202 52.1971 202 34.0009C202 15.8046 216.806 1 235.003 1V1.41145C217.032 1.41145 202.415 16.0315 202.415 33.997C202.415 51.9664 217.036 66.5826 235.003 66.5826C240.433 66.5826 245.809 65.2214 250.547 62.645L250.743 63.0064C245.944 65.6251 240.498 67.0018 235.003 67.0018Z" fill="#00BABA"/>
<path d="M219.383 59.4044C210.492 53.9286 205.186 44.4306 205.186 34.002H206.012C206.012 44.1422 211.173 53.3749 219.818 58.7007L219.383 59.4044Z" fill="#00BABA"/>
<path d="M235.007 63.8152C231.738 63.8152 228.527 63.2884 225.458 62.254L225.723 61.4733C228.708 62.4808 231.83 62.9923 235.01 62.9923C249.943 62.9923 262.345 51.8061 263.849 36.9707L264.671 37.0553C263.118 52.306 250.366 63.8152 235.007 63.8152Z" fill="#00BABA"/>
<path d="M263.622 29.3709C262.542 22.6454 259.088 16.4812 253.893 12.0168C248.644 7.50233 241.933 5.01822 235.003 5.01822C229.408 5.01822 223.978 6.61405 219.298 9.6365C213.845 13.1589 209.684 18.4654 207.58 24.5796L206.8 24.3104C208.961 18.0232 213.241 12.5667 218.848 8.94433C223.663 5.83728 229.247 4.19531 235 4.19531C242.129 4.19531 249.028 6.75247 254.427 11.3938C259.769 15.9852 263.322 22.3262 264.434 29.244L263.622 29.3709Z" fill="#00BABA"/>
<path d="M235.003 55.5359C223.128 55.5359 213.468 45.8763 213.468 34.0018C213.468 29.1951 215.018 24.6499 217.944 20.8584L218.598 21.3621C215.783 25.0114 214.295 29.3797 214.295 34.0018C214.295 45.4187 223.586 54.7091 235.003 54.7091C237.03 54.7091 239.033 54.4169 240.952 53.8401L241.191 54.6322C239.191 55.2359 237.107 55.5359 235.003 55.5359Z" fill="#00BABA"/>
<path d="M249.546 49.882L248.988 49.2745C253.261 45.3599 255.71 39.7957 255.71 34.0045C255.71 29.9285 254.526 25.9831 252.288 22.5954L252.976 22.1416C255.307 25.664 256.537 29.7669 256.537 34.0084C256.533 40.0264 253.988 45.8137 249.546 49.882Z" fill="#00BABA"/>
<path d="M247.886 17.7898C244.191 14.8481 239.734 13.2946 235.003 13.2946C230.854 13.2946 226.851 14.5174 223.424 16.8323L222.963 16.1478C226.524 13.7406 230.689 12.4717 235.003 12.4717C239.926 12.4717 244.56 14.0867 248.401 17.1476L247.886 17.7898Z" fill="#00BABA"/>
<path d="M235.003 51.8369C232.104 51.8369 229.224 51.1255 226.678 49.7797L226.87 49.4144C229.358 50.7295 232.169 51.4255 235 51.4255C242.818 51.4255 249.724 46.1689 251.797 38.6396L252.193 38.7512C250.078 46.4573 243.006 51.8369 235.003 51.8369Z" fill="#00BABA"/>
<path d="M222.394 46.6204C219.025 43.2519 217.168 38.772 217.168 34.0076C217.168 24.175 225.167 16.1729 235.004 16.1729C244.837 16.1729 252.84 24.175 252.84 34.0076H252.428C252.428 24.4019 244.614 16.5881 235.008 16.5881C225.401 16.5881 217.587 24.4019 217.587 34.0076C217.587 38.6605 219.398 43.0366 222.694 46.3282L222.394 46.6204Z" fill="#00BABA"/>
<path d="M235.003 45.0959C228.884 45.0959 223.908 40.12 223.908 34.0021C223.908 27.8841 228.884 22.9082 235.003 22.9082V23.735C229.342 23.735 224.735 28.3417 224.735 34.0021C224.735 39.6624 229.342 44.2692 235.003 44.2692C240.663 44.2692 245.27 39.6624 245.27 34.0021H246.097C246.093 40.12 241.117 45.0959 235.003 45.0959Z" fill="#00BABA"/>
<path d="M235.004 39.5178C231.962 39.5178 229.489 37.0452 229.489 34.0035H229.901C229.901 36.8145 232.189 39.1025 235 39.1025C237.811 39.1025 240.099 36.8145 240.099 34.0035C240.099 31.1925 237.811 28.9046 235 28.9046C233.439 28.9046 231.985 29.6044 231.008 30.8272L230.685 30.5696C231.739 29.2468 233.312 28.4893 235 28.4893C238.042 28.4893 240.515 30.9618 240.515 34.0035C240.515 37.0452 238.042 39.5178 235.004 39.5178Z" fill="#00BABA"/>
</g>
<g opacity="0.15">
<path d="M61.0602 155.586L60.7234 155.329C65.2043 149.446 67.5734 142.418 67.5734 135.002C67.5734 123.513 61.7931 112.943 52.1104 106.728L52.3401 106.371C62.1457 112.662 67.9974 123.366 67.9974 135.002C67.9974 142.509 65.5965 149.628 61.0602 155.586Z" fill="#00BABA"/>
<path d="M34.0006 168.997C15.2531 168.997 0 153.745 0 134.999C0 116.252 15.2531 101 34.0006 101V101.424C15.4869 101.424 0.42788 116.486 0.42788 134.995C0.42788 153.507 15.4908 168.565 34.0006 168.565C39.5947 168.565 45.1334 167.163 50.0144 164.509L50.2164 164.881C45.2721 167.579 39.6621 168.997 34.0006 168.997Z" fill="#00BABA"/>
<path d="M17.9103 161.168C8.75055 155.527 3.2832 145.742 3.2832 134.998H4.135C4.135 145.445 9.4518 154.957 18.358 160.444L17.9103 161.168Z" fill="#00BABA"/>
<path d="M34.0023 165.717C30.6347 165.717 27.3266 165.174 24.165 164.108L24.4384 163.304C27.5128 164.342 30.7298 164.869 34.0063 164.869C49.3901 164.869 62.1671 153.344 63.7162 138.061L64.564 138.148C62.9634 153.859 49.8259 165.717 34.0023 165.717Z" fill="#00BABA"/>
<path d="M63.4856 130.228C62.3723 123.299 58.8146 116.948 53.4621 112.349C48.0542 107.698 41.1408 105.139 34.0015 105.139C28.237 105.139 22.6429 106.783 17.8213 109.897C12.2034 113.526 7.9167 118.993 5.74957 125.292L4.94531 125.014C7.17187 118.537 11.5814 112.915 17.3578 109.184C22.318 105.983 28.0706 104.291 33.9976 104.291C41.3428 104.291 48.4504 106.925 54.0128 111.707C59.5158 116.437 63.1766 122.97 64.3216 130.097L63.4856 130.228Z" fill="#00BABA"/>
<path d="M33.9998 157.184C21.7656 157.184 11.8135 147.232 11.8135 134.999C11.8135 130.047 13.4101 125.364 16.4251 121.458L17.0986 121.977C14.1985 125.737 12.6653 130.237 12.6653 134.999C12.6653 146.761 22.2371 156.332 33.9998 156.332C36.0877 156.332 38.1519 156.031 40.1288 155.437L40.3745 156.253C38.3143 156.875 36.167 157.184 33.9998 157.184Z" fill="#00BABA"/>
<path d="M48.9837 151.359L48.4092 150.733C52.8108 146.701 55.3345 140.968 55.3345 135.002C55.3345 130.803 54.1142 126.738 51.8084 123.248L52.5176 122.78C54.9185 126.409 56.1863 130.636 56.1863 135.006C56.1823 141.206 53.5596 147.168 48.9837 151.359Z" fill="#00BABA"/>
<path d="M47.2725 118.295C43.4651 115.265 38.8733 113.664 34.0003 113.664C29.7254 113.664 25.6011 114.924 22.0711 117.309L21.5957 116.604C25.2644 114.124 29.5551 112.816 34.0003 112.816C39.0714 112.816 43.8455 114.48 47.8033 117.634L47.2725 118.295Z" fill="#00BABA"/>
<path d="M34.0012 153.372C31.014 153.372 28.0466 152.639 25.4238 151.252L25.6219 150.876C28.1852 152.231 31.0814 152.948 33.9973 152.948C42.0517 152.948 49.1672 147.532 51.3026 139.775L51.7107 139.89C49.5317 147.829 42.2458 153.372 34.0012 153.372Z" fill="#00BABA"/>
<path d="M21.0092 147.997C17.5386 144.527 15.625 139.911 15.625 135.003C15.625 124.873 23.8656 116.629 34.0001 116.629C44.1305 116.629 52.3751 124.873 52.3751 135.003H51.9512C51.9512 125.107 43.9007 117.057 34.004 117.057C24.1073 117.057 16.0568 125.107 16.0568 135.003C16.0568 139.796 17.9229 144.305 21.3182 147.696L21.0092 147.997Z" fill="#00BABA"/>
<path d="M34.0003 146.428C27.6969 146.428 22.5703 141.302 22.5703 134.999C22.5703 128.696 27.6969 123.569 34.0003 123.569V124.421C28.1684 124.421 23.4221 129.167 23.4221 134.999C23.4221 140.83 28.1684 145.576 34.0003 145.576C39.8321 145.576 44.5784 140.83 44.5784 134.999H45.4302C45.4262 141.302 40.2996 146.428 34.0003 146.428Z" fill="#00BABA"/>
<path d="M34.0006 140.679C30.8668 140.679 28.3193 138.132 28.3193 134.998H28.7432C28.7432 137.894 31.1005 140.251 33.9967 140.251C36.8928 140.251 39.2501 137.894 39.2501 134.998C39.2501 132.102 36.8928 129.745 33.9967 129.745C32.3882 129.745 30.8906 130.466 29.8843 131.726L29.5515 131.461C30.637 130.098 32.2574 129.317 33.9967 129.317C37.1305 129.317 39.678 131.865 39.678 134.998C39.678 138.132 37.1305 140.679 34.0006 140.679Z" fill="#00BABA"/>
</g>
<g opacity="0.15">
<path d="M126.06 54.5862L125.723 54.3287C130.204 48.4457 132.573 41.4178 132.573 34.0017C132.573 22.513 126.793 11.9434 117.11 5.72765L117.34 5.37109C127.146 11.6621 132.997 22.3664 132.997 34.0017C132.997 41.509 130.596 48.628 126.06 54.5862Z" fill="#00BABA"/>
<path d="M99.0006 67.9972C80.2531 67.9972 65 52.7449 65 33.9986C65 15.2522 80.2531 0 99.0006 0V0.42389C80.4869 0.42389 65.4279 15.4859 65.4279 33.9946C65.4279 52.5072 80.4908 67.5654 99.0006 67.5654C104.595 67.5654 110.133 66.1629 115.014 63.5087L115.216 63.881C110.272 66.5789 104.662 67.9972 99.0006 67.9972Z" fill="#00BABA"/>
<path d="M82.9103 60.1685C73.7506 54.5271 68.2832 44.7419 68.2832 33.998H69.135C69.135 44.4448 74.4518 53.9567 83.358 59.4435L82.9103 60.1685Z" fill="#00BABA"/>
<path d="M99.0023 64.7166C95.6347 64.7166 92.3266 64.1738 89.165 63.1082L89.4384 62.304C92.5128 63.3419 95.7298 63.8688 99.0063 63.8688C114.39 63.8688 127.167 52.3445 128.716 37.0605L129.564 37.1477C127.963 52.8595 114.826 64.7166 99.0023 64.7166Z" fill="#00BABA"/>
<path d="M128.486 29.2277C127.372 22.2988 123.815 15.9484 118.462 11.3489C113.054 6.69801 106.141 4.1388 99.0015 4.1388C93.237 4.1388 87.6429 5.78288 82.8213 8.89671C77.2034 12.5255 72.9167 17.9926 70.7496 24.2915L69.9453 24.0142C72.1719 17.537 76.5814 11.9154 82.3578 8.18361C87.318 4.98262 93.0706 3.29102 98.9976 3.29102C106.343 3.29102 113.45 5.92548 119.013 10.7072C124.516 15.4373 128.177 21.97 129.322 29.097L128.486 29.2277Z" fill="#00BABA"/>
<path d="M98.9998 56.1838C86.7656 56.1838 76.8135 46.2323 76.8135 33.9988C76.8135 29.0468 78.4101 24.3642 81.4251 20.458L82.0986 20.977C79.1985 24.7366 77.6653 29.2369 77.6653 33.9988C77.6653 45.7608 87.2371 55.3321 98.9998 55.3321C101.088 55.3321 103.152 55.031 105.129 54.4368L105.374 55.2529C103.314 55.8748 101.167 56.1838 98.9998 56.1838Z" fill="#00BABA"/>
<path d="M113.984 50.3594L113.409 49.7334C117.811 45.7005 120.334 39.9681 120.334 34.0019C120.334 29.8025 119.114 25.7379 116.808 22.2477L117.518 21.7803C119.918 25.4091 121.186 29.6362 121.186 34.0058C121.182 40.2057 118.56 46.168 113.984 50.3594Z" fill="#00BABA"/>
<path d="M112.272 17.2953C108.465 14.2647 103.873 12.6642 99.0003 12.6642C94.7254 12.6642 90.6011 13.924 87.0711 16.3089L86.5957 15.6037C90.2644 13.1237 94.5551 11.8164 99.0003 11.8164C104.071 11.8164 108.845 13.4803 112.803 16.6337L112.272 17.2953Z" fill="#00BABA"/>
<path d="M99.0012 52.3717C96.014 52.3717 93.0466 51.6388 90.4238 50.2522L90.6219 49.8758C93.1852 51.2307 96.0814 51.9478 98.9973 51.9478C107.052 51.9478 114.167 46.5322 116.303 38.7754L116.711 38.8903C114.532 46.8294 107.246 52.3717 99.0012 52.3717Z" fill="#00BABA"/>
<path d="M86.0092 46.997C82.5386 43.5266 80.625 38.9113 80.625 34.0029C80.625 23.873 88.8656 15.6289 99.0001 15.6289C109.131 15.6289 117.375 23.873 117.375 34.0029H116.951C116.951 24.1068 108.901 16.0568 99.004 16.0568C89.1073 16.0568 81.0568 24.1068 81.0568 34.0029C81.0568 38.7964 82.9229 43.3048 86.3182 46.6959L86.0092 46.997Z" fill="#00BABA"/>
<path d="M99.0003 45.4279C92.6969 45.4279 87.5703 40.3015 87.5703 33.9986C87.5703 27.6957 92.6969 22.5693 99.0003 22.5693V23.4211C93.1684 23.4211 88.4221 28.1671 88.4221 33.9986C88.4221 39.8301 93.1684 44.5761 99.0003 44.5761C104.832 44.5761 109.578 39.8301 109.578 33.9986H110.43C110.426 40.3015 105.3 45.4279 99.0003 45.4279Z" fill="#00BABA"/>
<path d="M99.0006 39.6793C95.8668 39.6793 93.3193 37.132 93.3193 33.9983H93.7432C93.7432 36.8943 96.1005 39.2514 98.9967 39.2514C101.893 39.2514 104.25 36.8943 104.25 33.9983C104.25 31.1024 101.893 28.7452 98.9967 28.7452C97.3882 28.7452 95.8906 29.4662 94.8843 30.726L94.5515 30.4606C95.637 29.0978 97.2574 28.3174 98.9967 28.3174C102.13 28.3174 104.678 30.8647 104.678 33.9983C104.678 37.132 102.13 39.6793 99.0006 39.6793Z" fill="#00BABA"/>
</g>
<g opacity="0.15">
<path d="M96.3294 98.9013L96.1511 98.7649C98.5235 95.6501 99.7779 91.9291 99.7779 88.0025C99.7779 81.9197 96.7175 76.3235 91.5908 73.0325L91.7125 72.8438C96.9042 76.1746 100.002 81.8421 100.002 88.0025C100.002 91.9773 98.7312 95.7466 96.3294 98.9013Z" fill="#00BABA"/>
<path d="M82.002 106.002C72.0759 106.002 64 97.9264 64 88.0009C64 78.0755 72.0759 70 82.002 70V70.2244C72.1997 70.2244 64.2265 78.1992 64.2265 87.9988C64.2265 97.8005 72.2018 105.773 82.002 105.773C84.9639 105.773 87.8964 105.031 90.4807 103.625L90.5877 103.823C87.9698 105.251 84.9995 106.002 82.002 106.002Z" fill="#00BABA"/>
<path d="M73.4828 101.857C68.633 98.8703 65.7383 93.6895 65.7383 88.001H66.1893C66.1893 93.5321 69.0043 98.5683 73.7198 101.473L73.4828 101.857Z" fill="#00BABA"/>
<path d="M82.0034 104.265C80.2204 104.265 78.4688 103.978 76.7949 103.413L76.9397 102.987C78.5674 103.537 80.2707 103.816 82.0055 103.816C90.1506 103.816 96.9155 97.7143 97.7357 89.6221L98.1846 89.6682C97.3372 97.987 90.3814 104.265 82.0034 104.265Z" fill="#00BABA"/>
<path d="M97.613 85.4756C97.0235 81.8071 95.1399 78.4447 92.3059 76.0095C89.4426 73.547 85.7823 72.192 82.0023 72.192C78.9502 72.192 75.9883 73.0625 73.4355 74.7112C70.4611 76.6325 68.1914 79.5271 67.044 82.8621L66.6182 82.7153C67.797 79.2859 70.1317 76.3095 73.1901 74.3336C75.8163 72.6388 78.8621 71.7432 82.0002 71.7432C85.8892 71.7432 89.6524 73.138 92.5975 75.6697C95.5111 78.1742 97.4494 81.633 98.0556 85.4064L97.613 85.4756Z" fill="#00BABA"/>
<path d="M82.0017 99.7475C75.5242 99.7475 70.2549 94.4785 70.2549 88.0014C70.2549 85.3795 71.1002 82.9002 72.6965 80.832L73.0531 81.1068C71.5177 83.0974 70.7059 85.4801 70.7059 88.0014C70.7059 94.2289 75.7738 99.2965 82.0017 99.2965C83.1072 99.2965 84.2 99.1371 85.2468 98.8225L85.3768 99.2546C84.286 99.5839 83.1491 99.7475 82.0017 99.7475Z" fill="#00BABA"/>
<path d="M89.935 96.6638L89.6309 96.3323C91.9613 94.1971 93.2975 91.1619 93.2975 88.0031C93.2975 85.7797 92.6515 83.6276 91.4306 81.7797L91.8061 81.5322C93.0773 83.4536 93.7485 85.6916 93.7485 88.0052C93.7464 91.2878 92.3578 94.4446 89.935 96.6638Z" fill="#00BABA"/>
<path d="M89.0294 79.1577C87.0136 77.5531 84.5824 76.7057 82.0023 76.7057C79.7389 76.7057 77.5553 77.3727 75.6863 78.6354L75.4346 78.2621C77.377 76.949 79.6487 76.2568 82.0023 76.2568C84.6873 76.2568 87.2149 77.1378 89.3105 78.8074L89.0294 79.1577Z" fill="#00BABA"/>
<path d="M82.0023 97.7299C80.4207 97.7299 78.8496 97.3419 77.4609 96.6078L77.5658 96.4085C78.923 97.1259 80.4564 97.5055 82.0002 97.5055C86.2648 97.5055 90.0321 94.6382 91.1628 90.5312L91.3788 90.5921C90.2251 94.7955 86.3675 97.7299 82.0023 97.7299Z" fill="#00BABA"/>
<path d="M75.1241 94.8836C73.2866 93.0461 72.2734 90.6025 72.2734 88.0037C72.2734 82.6403 76.6365 78.2754 82.0023 78.2754C87.366 78.2754 91.7312 82.6403 91.7312 88.0037H91.5068C91.5068 82.7641 87.2443 78.5019 82.0044 78.5019C76.7645 78.5019 72.5021 82.7641 72.5021 88.0037C72.5021 90.5417 73.4901 92.9287 75.2878 94.7242L75.1241 94.8836Z" fill="#00BABA"/>
<path d="M82.0019 94.0529C78.6646 94.0529 75.9502 91.3387 75.9502 88.0015C75.9502 84.6644 78.6646 81.9502 82.0019 81.9502V82.4012C78.9142 82.4012 76.4012 84.914 76.4012 88.0015C76.4012 91.0891 78.9142 93.6019 82.0019 93.6019C85.0896 93.6019 87.6026 91.0891 87.6026 88.0015H88.0536C88.0515 91.3387 85.3372 94.0529 82.0019 94.0529Z" fill="#00BABA"/>
<path d="M82.0022 91.0098C80.3429 91.0098 78.9941 89.6611 78.9941 88.002H79.2186C79.2186 89.5353 80.4667 90.7833 82.0001 90.7833C83.5334 90.7833 84.7815 89.5353 84.7815 88.002C84.7815 86.4687 83.5334 85.2207 82.0001 85.2207C81.1484 85.2207 80.3555 85.6024 79.8227 86.2694L79.6465 86.1289C80.2213 85.4074 81.0792 84.9941 82.0001 84.9941C83.6593 84.9941 85.0081 86.3428 85.0081 88.002C85.0081 89.6611 83.6593 91.0098 82.0022 91.0098Z" fill="#00BABA"/>
</g>
<g opacity="0.15">
<path d="M128.329 142.901L128.151 142.765C130.524 139.65 131.778 135.929 131.778 132.003C131.778 125.92 128.717 120.324 123.591 117.033L123.712 116.844C128.904 120.175 132.002 125.842 132.002 132.003C132.002 135.977 130.731 139.747 128.329 142.901Z" fill="#00BABA"/>
<path d="M114.002 150.002C104.076 150.002 96 141.926 96 132.001C96 122.075 104.076 114 114.002 114V114.224C104.2 114.224 96.2265 122.199 96.2265 131.999C96.2265 141.801 104.202 149.773 114.002 149.773C116.964 149.773 119.896 149.031 122.481 147.625L122.588 147.823C119.97 149.251 117 150.002 114.002 150.002Z" fill="#00BABA"/>
<path d="M105.483 145.857C100.633 142.87 97.7383 137.689 97.7383 132.001H98.1893C98.1893 137.532 101.004 142.568 105.72 145.473L105.483 145.857Z" fill="#00BABA"/>
<path d="M114.003 148.265C112.22 148.265 110.469 147.978 108.795 147.413L108.94 146.987C110.567 147.537 112.271 147.816 114.005 147.816C122.151 147.816 128.916 141.714 129.736 133.622L130.185 133.668C129.337 141.987 122.381 148.265 114.003 148.265Z" fill="#00BABA"/>
<path d="M129.613 129.476C129.024 125.807 127.14 122.445 124.306 120.01C121.443 117.547 117.782 116.192 114.002 116.192C110.95 116.192 107.988 117.063 105.436 118.711C102.461 120.632 100.191 123.527 99.044 126.862L98.6182 126.715C99.797 123.286 102.132 120.309 105.19 118.334C107.816 116.639 110.862 115.743 114 115.743C117.889 115.743 121.652 117.138 124.598 119.67C127.511 122.174 129.449 125.633 130.056 129.406L129.613 129.476Z" fill="#00BABA"/>
<path d="M114.002 143.747C107.524 143.747 102.255 138.479 102.255 132.001C102.255 129.379 103.1 126.9 104.697 124.832L105.053 125.107C103.518 127.097 102.706 129.48 102.706 132.001C102.706 138.229 107.774 143.297 114.002 143.297C115.107 143.297 116.2 143.137 117.247 142.822L117.377 143.255C116.286 143.584 115.149 143.747 114.002 143.747Z" fill="#00BABA"/>
<path d="M121.935 140.664L121.631 140.332C123.961 138.197 125.298 135.162 125.298 132.003C125.298 129.78 124.651 127.628 123.431 125.78L123.806 125.532C125.077 127.454 125.749 129.692 125.749 132.005C125.746 135.288 124.358 138.445 121.935 140.664Z" fill="#00BABA"/>
<path d="M121.029 123.158C119.014 121.553 116.582 120.706 114.002 120.706C111.739 120.706 109.555 121.373 107.686 122.635L107.435 122.262C109.377 120.949 111.649 120.257 114.002 120.257C116.687 120.257 119.215 121.138 121.31 122.807L121.029 123.158Z" fill="#00BABA"/>
<path d="M114.002 141.73C112.421 141.73 110.85 141.342 109.461 140.608L109.566 140.409C110.923 141.126 112.456 141.506 114 141.506C118.265 141.506 122.032 138.638 123.163 134.531L123.379 134.592C122.225 138.796 118.368 141.73 114.002 141.73Z" fill="#00BABA"/>
<path d="M107.124 138.884C105.287 137.046 104.273 134.603 104.273 132.004C104.273 126.64 108.637 122.275 114.002 122.275C119.366 122.275 123.731 126.64 123.731 132.004H123.507C123.507 126.764 119.244 122.502 114.004 122.502C108.764 122.502 104.502 126.764 104.502 132.004C104.502 134.542 105.49 136.929 107.288 138.724L107.124 138.884Z" fill="#00BABA"/>
<path d="M114.002 138.053C110.665 138.053 107.95 135.339 107.95 132.002C107.95 128.664 110.665 125.95 114.002 125.95V126.401C110.914 126.401 108.401 128.914 108.401 132.002C108.401 135.089 110.914 137.602 114.002 137.602C117.09 137.602 119.603 135.089 119.603 132.002H120.054C120.052 135.339 117.337 138.053 114.002 138.053Z" fill="#00BABA"/>
<path d="M114.002 135.01C112.343 135.01 110.994 133.661 110.994 132.002H111.219C111.219 133.535 112.467 134.783 114 134.783C115.533 134.783 116.782 133.535 116.782 132.002C116.782 130.469 115.533 129.221 114 129.221C113.148 129.221 112.356 129.602 111.823 130.269L111.647 130.129C112.221 129.407 113.079 128.994 114 128.994C115.659 128.994 117.008 130.343 117.008 132.002C117.008 133.661 115.659 135.01 114.002 135.01Z" fill="#00BABA"/>
</g>
<g opacity="0.15">
<path d="M140.329 101.901L140.151 101.765C142.524 98.6501 143.778 94.9291 143.778 91.0025C143.778 84.9197 140.717 79.3235 135.591 76.0325L135.712 75.8438C140.904 79.1746 144.002 84.8421 144.002 91.0025C144.002 94.9773 142.731 98.7466 140.329 101.901Z" fill="#00BABA"/>
<path d="M126.002 109.002C116.076 109.002 108 100.926 108 91.0009C108 81.0755 116.076 73 126.002 73V73.2244C116.2 73.2244 108.227 81.1992 108.227 90.9988C108.227 100.801 116.202 108.773 126.002 108.773C128.964 108.773 131.896 108.031 134.481 106.625L134.588 106.823C131.97 108.251 129 109.002 126.002 109.002Z" fill="#00BABA"/>
<path d="M117.483 104.857C112.633 101.87 109.738 96.6895 109.738 91.001H110.189C110.189 96.5321 113.004 101.568 117.72 104.473L117.483 104.857Z" fill="#00BABA"/>
<path d="M126.003 107.265C124.22 107.265 122.469 106.978 120.795 106.413L120.94 105.987C122.567 106.537 124.271 106.816 126.005 106.816C134.151 106.816 140.916 100.714 141.736 92.6221L142.185 92.6682C141.337 100.987 134.381 107.265 126.003 107.265Z" fill="#00BABA"/>
<path d="M141.613 88.4756C141.024 84.8071 139.14 81.4447 136.306 79.0095C133.443 76.547 129.782 75.192 126.002 75.192C122.95 75.192 119.988 76.0625 117.436 77.7112C114.461 79.6325 112.191 82.5271 111.044 85.8621L110.618 85.7153C111.797 82.2859 114.132 79.3095 117.19 77.3336C119.816 75.6388 122.862 74.7432 126 74.7432C129.889 74.7432 133.652 76.138 136.598 78.6697C139.511 81.1742 141.449 84.633 142.056 88.4064L141.613 88.4756Z" fill="#00BABA"/>
<path d="M126.002 102.747C119.524 102.747 114.255 97.4785 114.255 91.0014C114.255 88.3795 115.1 85.9002 116.697 83.832L117.053 84.1068C115.518 86.0974 114.706 88.4801 114.706 91.0014C114.706 97.2289 119.774 102.297 126.002 102.297C127.107 102.297 128.2 102.137 129.247 101.822L129.377 102.255C128.286 102.584 127.149 102.747 126.002 102.747Z" fill="#00BABA"/>
<path d="M133.935 99.6638L133.631 99.3323C135.961 97.1971 137.298 94.1619 137.298 91.0031C137.298 88.7797 136.651 86.6276 135.431 84.7797L135.806 84.5322C137.077 86.4536 137.749 88.6916 137.749 91.0052C137.746 94.2878 136.358 97.4446 133.935 99.6638Z" fill="#00BABA"/>
<path d="M133.029 82.1577C131.014 80.5531 128.582 79.7057 126.002 79.7057C123.739 79.7057 121.555 80.3727 119.686 81.6354L119.435 81.2621C121.377 79.949 123.649 79.2568 126.002 79.2568C128.687 79.2568 131.215 80.1378 133.31 81.8074L133.029 82.1577Z" fill="#00BABA"/>
<path d="M126.002 100.73C124.421 100.73 122.85 100.342 121.461 99.6078L121.566 99.4085C122.923 100.126 124.456 100.506 126 100.506C130.265 100.506 134.032 97.6382 135.163 93.5312L135.379 93.5921C134.225 97.7955 130.368 100.73 126.002 100.73Z" fill="#00BABA"/>
<path d="M119.124 97.8836C117.287 96.0461 116.273 93.6025 116.273 91.0037C116.273 85.6403 120.637 81.2754 126.002 81.2754C131.366 81.2754 135.731 85.6403 135.731 91.0037H135.507C135.507 85.7641 131.244 81.5019 126.004 81.5019C120.764 81.5019 116.502 85.7641 116.502 91.0037C116.502 93.5417 117.49 95.9287 119.288 97.7242L119.124 97.8836Z" fill="#00BABA"/>
<path d="M126.002 97.0529C122.665 97.0529 119.95 94.3387 119.95 91.0015C119.95 87.6644 122.665 84.9502 126.002 84.9502V85.4012C122.914 85.4012 120.401 87.914 120.401 91.0015C120.401 94.0891 122.914 96.6019 126.002 96.6019C129.09 96.6019 131.603 94.0891 131.603 91.0015H132.054C132.052 94.3387 129.337 97.0529 126.002 97.0529Z" fill="#00BABA"/>
<path d="M126.002 94.0098C124.343 94.0098 122.994 92.6611 122.994 91.002H123.219C123.219 92.5353 124.467 93.7833 126 93.7833C127.533 93.7833 128.782 92.5353 128.782 91.002C128.782 89.4687 127.533 88.2207 126 88.2207C125.148 88.2207 124.356 88.6024 123.823 89.2694L123.647 89.1289C124.221 88.4074 125.079 87.9941 126 87.9941C127.659 87.9941 129.008 89.3428 129.008 91.002C129.008 92.6611 127.659 94.0098 126.002 94.0098Z" fill="#00BABA"/>
</g>
<g opacity="0.15">
<path d="M241.329 153.901L241.151 153.765C243.524 150.65 244.778 146.929 244.778 143.003C244.778 136.92 241.717 131.324 236.591 128.033L236.712 127.844C241.904 131.175 245.002 136.842 245.002 143.003C245.002 146.977 243.731 150.747 241.329 153.901Z" fill="#00BABA"/>
<path d="M227.002 161.002C217.076 161.002 209 152.926 209 143.001C209 133.075 217.076 125 227.002 125V125.224C217.2 125.224 209.227 133.199 209.227 142.999C209.227 152.801 217.202 160.773 227.002 160.773C229.964 160.773 232.896 160.031 235.481 158.625L235.588 158.823C232.97 160.251 230 161.002 227.002 161.002Z" fill="#00BABA"/>
<path d="M218.483 156.857C213.633 153.87 210.738 148.689 210.738 143.001H211.189C211.189 148.532 214.004 153.568 218.72 156.473L218.483 156.857Z" fill="#00BABA"/>
<path d="M227.003 159.265C225.22 159.265 223.469 158.978 221.795 158.413L221.94 157.987C223.567 158.537 225.271 158.816 227.005 158.816C235.151 158.816 241.916 152.714 242.736 144.622L243.185 144.668C242.337 152.987 235.381 159.265 227.003 159.265Z" fill="#00BABA"/>
<path d="M242.613 140.476C242.024 136.807 240.14 133.445 237.306 131.01C234.443 128.547 230.782 127.192 227.002 127.192C223.95 127.192 220.988 128.063 218.436 129.711C215.461 131.632 213.191 134.527 212.044 137.862L211.618 137.715C212.797 134.286 215.132 131.309 218.19 129.334C220.816 127.639 223.862 126.743 227 126.743C230.889 126.743 234.652 128.138 237.598 130.67C240.511 133.174 242.449 136.633 243.056 140.406L242.613 140.476Z" fill="#00BABA"/>
<path d="M227.002 154.747C220.524 154.747 215.255 149.479 215.255 143.001C215.255 140.379 216.1 137.9 217.697 135.832L218.053 136.107C216.518 138.097 215.706 140.48 215.706 143.001C215.706 149.229 220.774 154.297 227.002 154.297C228.107 154.297 229.2 154.137 230.247 153.822L230.377 154.255C229.286 154.584 228.149 154.747 227.002 154.747Z" fill="#00BABA"/>
<path d="M234.935 151.664L234.631 151.332C236.961 149.197 238.298 146.162 238.298 143.003C238.298 140.78 237.651 138.628 236.431 136.78L236.806 136.532C238.077 138.454 238.749 140.692 238.749 143.005C238.746 146.288 237.358 149.445 234.935 151.664Z" fill="#00BABA"/>
<path d="M234.029 134.158C232.014 132.553 229.582 131.706 227.002 131.706C224.739 131.706 222.555 132.373 220.686 133.635L220.435 133.262C222.377 131.949 224.649 131.257 227.002 131.257C229.687 131.257 232.215 132.138 234.31 133.807L234.029 134.158Z" fill="#00BABA"/>
<path d="M227.002 152.73C225.421 152.73 223.85 152.342 222.461 151.608L222.566 151.409C223.923 152.126 225.456 152.506 227 152.506C231.265 152.506 235.032 149.638 236.163 145.531L236.379 145.592C235.225 149.796 231.368 152.73 227.002 152.73Z" fill="#00BABA"/>
<path d="M220.124 149.884C218.287 148.046 217.273 145.603 217.273 143.004C217.273 137.64 221.637 133.275 227.002 133.275C232.366 133.275 236.731 137.64 236.731 143.004H236.507C236.507 137.764 232.244 133.502 227.004 133.502C221.764 133.502 217.502 137.764 217.502 143.004C217.502 145.542 218.49 147.929 220.288 149.724L220.124 149.884Z" fill="#00BABA"/>
<path d="M227.002 149.053C223.665 149.053 220.95 146.339 220.95 143.002C220.95 139.664 223.665 136.95 227.002 136.95V137.401C223.914 137.401 221.401 139.914 221.401 143.002C221.401 146.089 223.914 148.602 227.002 148.602C230.09 148.602 232.603 146.089 232.603 143.002H233.054C233.052 146.339 230.337 149.053 227.002 149.053Z" fill="#00BABA"/>
<path d="M227.002 146.01C225.343 146.01 223.994 144.661 223.994 143.002H224.219C224.219 144.535 225.467 145.783 227 145.783C228.533 145.783 229.782 144.535 229.782 143.002C229.782 141.469 228.533 140.221 227 140.221C226.148 140.221 225.356 140.602 224.823 141.269L224.647 141.129C225.221 140.407 226.079 139.994 227 139.994C228.659 139.994 230.008 141.343 230.008 143.002C230.008 144.661 228.659 146.01 227.002 146.01Z" fill="#00BABA"/>
</g>
<g opacity="0.15">
<path d="M190.489 84.3473L190.221 84.1428C193.78 79.4711 195.661 73.8903 195.661 68.0011C195.661 58.878 191.071 50.4847 183.382 45.5488L183.564 45.2656C191.351 50.2613 195.998 58.7616 195.998 68.0011C195.998 73.9627 194.091 79.6159 190.489 84.3473Z" fill="#00BABA"/>
<path d="M169 94.9965C154.112 94.9965 142 82.8847 142 67.9982C142 53.1118 154.112 41 169 41V41.3366C154.298 41.3366 142.34 53.2974 142.34 67.9951C142.34 82.6959 154.301 94.6536 169 94.6536C173.442 94.6536 177.84 93.5399 181.716 91.4321L181.877 91.7279C177.95 93.8702 173.496 94.9965 169 94.9965Z" fill="#00BABA"/>
<path d="M156.223 88.7809C148.949 84.3011 144.607 76.5307 144.607 67.999H145.284C145.284 76.2948 149.506 83.8481 156.578 88.2052L156.223 88.7809Z" fill="#00BABA"/>
<path d="M169.002 92.3913C166.328 92.3913 163.701 91.9603 161.19 91.1141L161.408 90.4754C163.849 91.2997 166.404 91.7181 169.005 91.7181C181.222 91.7181 191.368 82.5666 192.598 70.4297L193.271 70.4989C192 82.9756 181.568 92.3913 169.002 92.3913Z" fill="#00BABA"/>
<path d="M192.414 64.2106C191.529 58.7083 188.704 53.6655 184.454 50.0131C180.159 46.3197 174.67 44.2875 169 44.2875C164.423 44.2875 159.98 45.593 156.152 48.0657C151.69 50.9474 148.286 55.2887 146.565 60.2907L145.927 60.0705C147.695 54.927 151.196 50.4629 155.783 47.4995C159.722 44.9576 164.291 43.6143 168.997 43.6143C174.83 43.6143 180.474 45.7063 184.891 49.5034C189.261 53.2596 192.168 58.4472 193.077 64.1067L192.414 64.2106Z" fill="#00BABA"/>
<path d="M169 85.6159C159.285 85.6159 151.382 77.7134 151.382 67.9988C151.382 64.0664 152.65 60.348 155.044 57.2461L155.579 57.6582C153.276 60.6437 152.058 64.2174 152.058 67.9988C152.058 77.339 159.659 84.9396 169 84.9396C170.658 84.9396 172.297 84.7005 173.867 84.2286L174.062 84.8766C172.426 85.3706 170.721 85.6159 169 85.6159Z" fill="#00BABA"/>
<path d="M180.899 80.9915L180.442 80.4944C183.938 77.2919 185.942 72.7398 185.942 68.002C185.942 64.6674 184.973 61.4396 183.142 58.6681L183.705 58.2969C185.611 61.1785 186.618 64.5352 186.618 68.0052C186.615 72.9285 184.532 77.6631 180.899 80.9915Z" fill="#00BABA"/>
<path d="M179.54 54.7356C176.517 52.3289 172.871 51.058 169.001 51.058C165.606 51.058 162.331 52.0584 159.528 53.9522L159.15 53.3923C162.064 51.4229 165.471 50.3848 169.001 50.3848C173.028 50.3848 176.819 51.7061 179.962 54.2102L179.54 54.7356Z" fill="#00BABA"/>
<path d="M169.001 82.5907C166.629 82.5907 164.272 82.0087 162.189 80.9077L162.347 80.6088C164.382 81.6847 166.682 82.2541 168.998 82.2541C175.394 82.2541 181.044 77.9536 182.74 71.7939L183.064 71.8852C181.333 78.1896 175.548 82.5907 169.001 82.5907Z" fill="#00BABA"/>
<path d="M158.685 78.3214C155.929 75.5656 154.409 71.9006 154.409 68.0029C154.409 59.9588 160.953 53.4121 169.001 53.4121C177.045 53.4121 183.592 59.9588 183.592 68.0029H183.256C183.256 60.1444 176.863 53.7519 169.004 53.7519C161.145 53.7519 154.752 60.1444 154.752 68.0029C154.752 71.8094 156.234 75.3895 158.93 78.0824L158.685 78.3214Z" fill="#00BABA"/>
<path d="M169 77.0758C163.995 77.0758 159.924 73.0049 159.924 67.9998C159.924 62.9946 163.995 58.9238 169 58.9238V59.6002C164.369 59.6002 160.6 63.369 160.6 67.9998C160.6 72.6306 164.369 76.3994 169 76.3994C173.631 76.3994 177.4 72.6306 177.4 67.9998H178.077C178.074 73.0049 174.003 77.0758 169 77.0758Z" fill="#00BABA"/>
<path d="M169.001 72.5117C166.512 72.5117 164.489 70.4889 164.489 68.0005H164.826C164.826 70.3002 166.698 72.172 168.998 72.172C171.297 72.172 173.169 70.3002 173.169 68.0005C173.169 65.7008 171.297 63.829 168.998 63.829C167.72 63.829 166.531 64.4016 165.732 65.402L165.468 65.1912C166.33 64.109 167.616 63.4893 168.998 63.4893C171.486 63.4893 173.509 65.5121 173.509 68.0005C173.509 70.4889 171.486 72.5117 169.001 72.5117Z" fill="#00BABA"/>
</g>
<g opacity="0.15">
<path d="M193.712 147.715L193.504 147.556C196.272 143.922 197.735 139.582 197.735 135.001C197.735 127.906 194.165 121.378 188.185 117.539L188.326 117.318C194.383 121.204 197.997 127.815 197.997 135.001C197.997 139.638 196.514 144.035 193.712 147.715Z" fill="#00BABA"/>
<path d="M176.999 155.996C165.421 155.996 156 146.576 156 134.998C156 123.42 165.421 114 176.999 114V114.262C165.565 114.262 156.264 123.564 156.264 134.996C156.264 146.43 165.567 155.73 176.999 155.73C180.455 155.73 183.875 154.864 186.89 153.224L187.015 153.454C183.961 155.121 180.496 155.996 176.999 155.996Z" fill="#00BABA"/>
<path d="M167.061 151.162C161.404 147.678 158.027 141.635 158.027 134.999H158.553C158.553 141.451 161.837 147.326 167.338 150.715L167.061 151.162Z" fill="#00BABA"/>
<path d="M177.001 153.97C174.922 153.97 172.878 153.634 170.926 152.976L171.095 152.48C172.993 153.121 174.98 153.446 177.004 153.446C186.505 153.446 194.397 146.328 195.353 136.889L195.877 136.943C194.888 146.646 186.774 153.97 177.001 153.97Z" fill="#00BABA"/>
<path d="M195.209 132.052C194.522 127.773 192.324 123.851 189.019 121.01C185.679 118.137 181.409 116.557 176.999 116.557C173.439 116.557 169.984 117.572 167.006 119.495C163.536 121.737 160.889 125.113 159.55 129.004L159.054 128.832C160.429 124.832 163.152 121.36 166.72 119.055C169.783 117.078 173.336 116.033 176.997 116.033C181.534 116.033 185.923 117.66 189.359 120.614C192.758 123.535 195.019 127.57 195.726 131.972L195.209 132.052Z" fill="#00BABA"/>
<path d="M177 148.701C169.444 148.701 163.297 142.554 163.297 134.999C163.297 131.94 164.283 129.048 166.145 126.636L166.561 126.956C164.77 129.278 163.823 132.058 163.823 134.999C163.823 142.263 169.735 148.175 177 148.175C178.289 148.175 179.564 147.989 180.785 147.622L180.937 148.126C179.664 148.51 178.338 148.701 177 148.701Z" fill="#00BABA"/>
<path d="M186.253 145.103L185.898 144.717C188.617 142.226 190.176 138.685 190.176 135C190.176 132.407 189.422 129.896 187.998 127.741L188.436 127.452C189.919 129.693 190.702 132.304 190.702 135.003C190.699 138.832 189.079 142.515 186.253 145.103Z" fill="#00BABA"/>
<path d="M185.197 124.684C182.846 122.812 180.01 121.823 177 121.823C174.36 121.823 171.813 122.601 169.633 124.074L169.339 123.639C171.605 122.107 174.255 121.3 177 121.3C180.132 121.3 183.081 122.327 185.525 124.275L185.197 124.684Z" fill="#00BABA"/>
<path d="M177 146.348C175.155 146.348 173.322 145.895 171.702 145.039L171.824 144.806C173.408 145.643 175.196 146.086 176.997 146.086C181.972 146.086 186.367 142.741 187.685 137.95L187.937 138.021C186.592 142.924 182.092 146.348 177 146.348Z" fill="#00BABA"/>
<path d="M168.977 143.028C166.833 140.884 165.651 138.034 165.651 135.002C165.651 128.746 170.741 123.654 177 123.654C183.257 123.654 188.349 128.746 188.349 135.002H188.087C188.087 128.89 183.115 123.919 177.003 123.919C170.89 123.919 165.918 128.89 165.918 135.002C165.918 137.963 167.071 140.747 169.168 142.842L168.977 143.028Z" fill="#00BABA"/>
<path d="M177 142.058C173.107 142.058 169.94 138.892 169.94 134.999C169.94 131.107 173.107 127.94 177 127.94V128.466C173.398 128.466 170.467 131.398 170.467 134.999C170.467 138.601 173.398 141.532 177 141.532C180.602 141.532 183.533 138.601 183.533 134.999H184.059C184.057 138.892 180.89 142.058 177 142.058Z" fill="#00BABA"/>
<path d="M177 138.509C175.065 138.509 173.491 136.935 173.491 135H173.753C173.753 136.788 175.209 138.244 176.998 138.244C178.786 138.244 180.242 136.788 180.242 135C180.242 133.211 178.786 131.755 176.998 131.755C176.004 131.755 175.079 132.201 174.458 132.979L174.252 132.815C174.923 131.973 175.923 131.491 176.998 131.491C178.933 131.491 180.507 133.064 180.507 135C180.507 136.935 178.933 138.509 177 138.509Z" fill="#00BABA"/>
</g>
<g opacity="0.15">
<path d="M55.7122 75.7147L55.5042 75.5556C58.2716 71.9222 59.7349 67.5816 59.7349 63.0012C59.7349 55.9056 56.1648 49.3776 50.1846 45.5386L50.3265 45.3184C56.3826 49.2038 59.9967 55.815 59.9967 63.0012C59.9967 67.6379 58.5139 72.0347 55.7122 75.7147Z" fill="#00BABA"/>
<path d="M38.9995 83.9965C27.4206 83.9965 18 74.5764 18 62.9982C18 51.4201 27.4206 42 38.9995 42V42.2618C27.565 42.2618 18.2643 51.5644 18.2643 62.9958C18.2643 74.4296 27.5675 83.7298 38.9995 83.7298C42.4545 83.7298 45.8753 82.8636 48.8899 81.2243L49.0147 81.4543C45.961 83.1205 42.4961 83.9965 38.9995 83.9965Z" fill="#00BABA"/>
<path d="M29.0614 79.1624C23.4041 75.6782 20.0273 69.6347 20.0273 62.999H20.5534C20.5534 69.4512 23.8372 75.3259 29.3379 78.7147L29.0614 79.1624Z" fill="#00BABA"/>
<path d="M39.0015 81.9696C36.9216 81.9696 34.8784 81.6344 32.9258 80.9762L33.0946 80.4795C34.9934 81.1206 36.9803 81.446 39.0039 81.446C48.5053 81.446 56.3966 74.3283 57.3534 64.8887L57.877 64.9425C56.8885 74.6464 48.7745 81.9696 39.0015 81.9696Z" fill="#00BABA"/>
<path d="M57.2094 60.0522C56.5218 55.7728 54.3245 51.8507 51.0187 49.0099C47.6787 46.1374 43.4088 44.5568 38.9994 44.5568C35.4392 44.5568 31.9841 45.5722 29.0062 47.4954C25.5365 49.7366 22.8889 53.1132 21.5504 57.0036L21.0537 56.8323C22.4289 52.8318 25.1523 49.3598 28.7199 47.055C31.7835 45.078 35.3364 44.0332 38.997 44.0332C43.5336 44.0332 47.9233 45.6603 51.3588 48.6136C54.7576 51.535 57.0186 55.5698 57.7257 59.9715L57.2094 60.0522Z" fill="#00BABA"/>
<path d="M38.9996 76.7008C31.4435 76.7008 25.2969 70.5545 25.2969 62.9988C25.2969 59.9404 26.283 57.0483 28.1451 54.6357L28.5611 54.9563C26.7699 57.2783 25.823 60.0578 25.823 62.9988C25.823 70.2633 31.7347 76.1747 38.9996 76.1747C40.2892 76.1747 41.564 75.9888 42.785 75.6217L42.9367 76.1258C41.6643 76.5099 40.3381 76.7008 38.9996 76.7008Z" fill="#00BABA"/>
<path d="M48.2532 73.1032L47.8984 72.7166C50.617 70.2258 52.1757 66.6853 52.1757 63.0005C52.1757 60.4069 51.422 57.8965 49.9979 55.7409L50.4359 55.4521C51.9187 57.6934 52.7017 60.3041 52.7017 63.0029C52.6993 66.8321 51.0794 70.5145 48.2532 73.1032Z" fill="#00BABA"/>
<path d="M47.1974 52.6837C44.8459 50.8119 42.0099 49.8234 39.0002 49.8234C36.36 49.8234 33.8127 50.6015 31.6325 52.0744L31.3389 51.6389C33.6047 50.1072 36.2547 49.2998 39.0002 49.2998C42.1322 49.2998 45.0808 50.3275 47.5252 52.2751L47.1974 52.6837Z" fill="#00BABA"/>
<path d="M38.9997 74.3475C37.1548 74.3475 35.322 73.8949 33.7021 73.0385L33.8245 72.8061C35.4077 73.6429 37.1964 74.0857 38.9973 74.0857C43.9719 74.0857 48.3665 70.741 49.6854 65.9502L49.9375 66.0212C48.5917 70.9245 44.0918 74.3475 38.9997 74.3475Z" fill="#00BABA"/>
<path d="M30.9767 71.0279C28.8332 68.8845 27.6514 66.034 27.6514 63.0024C27.6514 56.746 32.741 51.6543 39.0002 51.6543C45.257 51.6543 50.349 56.746 50.349 63.0024H50.0872C50.0872 56.8904 45.115 51.9185 39.0026 51.9185C32.8902 51.9185 27.9181 56.8904 27.9181 63.0024C27.9181 65.963 29.0706 68.7475 31.1676 70.8419L30.9767 71.0279Z" fill="#00BABA"/>
<path d="M38.9998 70.0583C35.1067 70.0583 31.9404 66.8922 31.9404 62.9994C31.9404 59.1066 35.1067 55.9404 38.9998 55.9404V56.4665C35.3979 56.4665 32.4665 59.3977 32.4665 62.9994C32.4665 66.601 35.3979 69.5323 38.9998 69.5323C42.6017 69.5323 45.5331 66.601 45.5331 62.9994H46.0592C46.0567 66.8922 42.8904 70.0583 38.9998 70.0583Z" fill="#00BABA"/>
<path d="M39.0001 66.5086C37.0646 66.5086 35.4912 64.9353 35.4912 62.9999H35.753C35.753 64.7885 37.2089 66.2443 38.9976 66.2443C40.7863 66.2443 42.2423 64.7885 42.2423 62.9999C42.2423 61.2113 40.7863 59.7555 38.9976 59.7555C38.0042 59.7555 37.0793 60.2008 36.4577 60.9788L36.2522 60.8149C36.9227 59.9732 37.9234 59.4912 38.9976 59.4912C40.9332 59.4912 42.5065 61.0645 42.5065 62.9999C42.5065 64.9353 40.9332 66.5086 39.0001 66.5086Z" fill="#00BABA"/>
</g>
<g opacity="0.15">
<path d="M236.712 110.715L236.504 110.556C239.272 106.922 240.735 102.582 240.735 98.0012C240.735 90.9056 237.165 84.3776 231.185 80.5386L231.326 80.3184C237.383 84.2038 240.997 90.815 240.997 98.0012C240.997 102.638 239.514 107.035 236.712 110.715Z" fill="#00BABA"/>
<path d="M219.999 118.996C208.421 118.996 199 109.576 199 97.9982C199 86.4201 208.421 77 219.999 77V77.2618C208.565 77.2618 199.264 86.5644 199.264 97.9958C199.264 109.43 208.567 118.73 219.999 118.73C223.455 118.73 226.875 117.864 229.89 116.224L230.015 116.454C226.961 118.121 223.496 118.996 219.999 118.996Z" fill="#00BABA"/>
<path d="M210.061 114.162C204.404 110.678 201.027 104.635 201.027 97.999H201.553C201.553 104.451 204.837 110.326 210.338 113.715L210.061 114.162Z" fill="#00BABA"/>
<path d="M220.001 116.97C217.922 116.97 215.878 116.634 213.926 115.976L214.095 115.48C215.993 116.121 217.98 116.446 220.004 116.446C229.505 116.446 237.397 109.328 238.353 99.8887L238.877 99.9425C237.888 109.646 229.774 116.97 220.001 116.97Z" fill="#00BABA"/>
<path d="M238.209 95.0522C237.522 90.7728 235.324 86.8507 232.019 84.0099C228.679 81.1374 224.409 79.5568 219.999 79.5568C216.439 79.5568 212.984 80.5722 210.006 82.4954C206.536 84.7366 203.889 88.1132 202.55 92.0036L202.054 91.8323C203.429 87.8318 206.152 84.3598 209.72 82.055C212.783 80.078 216.336 79.0332 219.997 79.0332C224.534 79.0332 228.923 80.6603 232.359 83.6136C235.758 86.535 238.019 90.5698 238.726 94.9715L238.209 95.0522Z" fill="#00BABA"/>
<path d="M220 111.701C212.444 111.701 206.297 105.554 206.297 97.9988C206.297 94.9404 207.283 92.0483 209.145 89.6357L209.561 89.9563C207.77 92.2783 206.823 95.0578 206.823 97.9988C206.823 105.263 212.735 111.175 220 111.175C221.289 111.175 222.564 110.989 223.785 110.622L223.937 111.126C222.664 111.51 221.338 111.701 220 111.701Z" fill="#00BABA"/>
<path d="M229.253 108.103L228.898 107.717C231.617 105.226 233.176 101.685 233.176 98.0005C233.176 95.4069 232.422 92.8965 230.998 90.7409L231.436 90.4521C232.919 92.6934 233.702 95.3041 233.702 98.0029C233.699 101.832 232.079 105.515 229.253 108.103Z" fill="#00BABA"/>
<path d="M228.197 87.6837C225.846 85.8119 223.01 84.8234 220 84.8234C217.36 84.8234 214.813 85.6015 212.633 87.0744L212.339 86.6389C214.605 85.1072 217.255 84.2998 220 84.2998C223.132 84.2998 226.081 85.3275 228.525 87.2751L228.197 87.6837Z" fill="#00BABA"/>
<path d="M220 109.348C218.155 109.348 216.322 108.895 214.702 108.039L214.824 107.806C216.408 108.643 218.196 109.086 219.997 109.086C224.972 109.086 229.367 105.741 230.685 100.95L230.937 101.021C229.592 105.924 225.092 109.348 220 109.348Z" fill="#00BABA"/>
<path d="M211.977 106.028C209.833 103.884 208.651 101.034 208.651 98.0024C208.651 91.746 213.741 86.6543 220 86.6543C226.257 86.6543 231.349 91.746 231.349 98.0024H231.087C231.087 91.8904 226.115 86.9185 220.003 86.9185C213.89 86.9185 208.918 91.8904 208.918 98.0024C208.918 100.963 210.071 103.747 212.168 105.842L211.977 106.028Z" fill="#00BABA"/>
<path d="M220 105.058C216.107 105.058 212.94 101.892 212.94 97.9994C212.94 94.1066 216.107 90.9404 220 90.9404V91.4665C216.398 91.4665 213.467 94.3977 213.467 97.9994C213.467 101.601 216.398 104.532 220 104.532C223.602 104.532 226.533 101.601 226.533 97.9994H227.059C227.057 101.892 223.89 105.058 220 105.058Z" fill="#00BABA"/>
<path d="M220 101.509C218.065 101.509 216.491 99.9353 216.491 97.9999H216.753C216.753 99.7885 218.209 101.244 219.998 101.244C221.786 101.244 223.242 99.7885 223.242 97.9999C223.242 96.2113 221.786 94.7555 219.998 94.7555C219.004 94.7555 218.079 95.2008 217.458 95.9788L217.252 95.8149C217.923 94.9732 218.923 94.4912 219.998 94.4912C221.933 94.4912 223.507 96.0645 223.507 97.9999C223.507 99.9353 221.933 101.509 220 101.509Z" fill="#00BABA"/>
</g>
</svg>
