<svg width="120" height="120" viewBox="0 0 120 120" fill="none" xmlns="http://www.w3.org/2000/svg">
<path d="M9.2563 40.5102L0.000273652 40.5173L9.24924 49.7663L9.2563 40.5102Z" fill="#00BABA" fill-opacity="0.3"/>
<path d="M23.1226 54.3765L13.8665 54.3835L23.1155 63.6325L23.1226 54.3765Z" fill="#00BABA" fill-opacity="0.3"/>
<path d="M36.9888 68.2432L27.7327 68.2502L36.9817 77.4992L36.9888 68.2432Z" fill="#00BABA" fill-opacity="0.3"/>
<path d="M50.8549 82.1093L41.5989 82.1164L50.8478 91.3654L50.8549 82.1093Z" fill="#00BABA" fill-opacity="0.3"/>
<path d="M64.7221 95.9755L55.4661 95.9826L64.7151 105.232L64.7221 95.9755Z" fill="#00BABA" fill-opacity="0.3"/>
<path d="M78.5884 109.842L69.3323 109.849L78.5813 119.098L78.5884 109.842Z" fill="#00BABA" fill-opacity="0.3"/>
<path d="M37.2788 40.2202L28.0298 40.2202L37.2788 49.4692L37.2788 40.2202Z" fill="#00BABA" fill-opacity="0.3"/>
<path d="M51.145 54.0864L41.896 54.0864L51.145 63.3354L51.145 54.0864Z" fill="#00BABA" fill-opacity="0.3"/>
<path d="M65.0112 67.9531L55.7622 67.9531L65.0112 77.202L65.0112 67.9531Z" fill="#00BABA" fill-opacity="0.3"/>
<path d="M78.8774 81.8193L69.6284 81.8193L78.8774 91.0683L78.8774 81.8193Z" fill="#00BABA" fill-opacity="0.3"/>
<path d="M65.3091 39.9233L56.0601 39.9233L65.3091 49.1723L65.3091 39.9233Z" fill="#00BABA" fill-opacity="0.3"/>
<path d="M79.1752 53.7895L69.9263 53.7895L79.1752 63.0384L79.1752 53.7895Z" fill="#00BABA" fill-opacity="0.3"/>
<path d="M23.6743 39.9658L14.4253 39.9658L23.6743 49.2148L23.6743 39.9658Z" fill="#00BABA" fill-opacity="0.3"/>
<path d="M37.5408 53.8323L28.2847 53.8252L37.5407 63.0812L37.5408 53.8323Z" fill="#00BABA" fill-opacity="0.3"/>
<path d="M51.4069 67.6984L42.1509 67.6914L51.4069 76.9474L51.4069 67.6984Z" fill="#00BABA" fill-opacity="0.3"/>
<path d="M65.2661 81.5576L56.0171 81.5576L65.2731 90.8136L65.2661 81.5576Z" fill="#00BABA" fill-opacity="0.3"/>
<path d="M79.1323 95.4243L69.8833 95.4243L79.1394 104.68L79.1323 95.4243Z" fill="#00BABA" fill-opacity="0.3"/>
<path d="M51.2937 40.0788L42.0376 40.0717L51.2937 49.3278L51.2937 40.0788Z" fill="#00BABA" fill-opacity="0.3"/>
<path d="M65.1599 53.945L55.9038 53.938L65.1598 63.194L65.1599 53.945Z" fill="#00BABA" fill-opacity="0.3"/>
<path d="M79.019 67.8046L69.77 67.8047L79.0261 77.0607L79.019 67.8046Z" fill="#00BABA" fill-opacity="0.3"/>
<path d="M79.8112 39.2941L70.5552 39.2871L79.8112 48.5431L79.8112 39.2941Z" fill="#00BABA" fill-opacity="0.3"/>
</svg>
