<svg width="531" height="430" viewBox="0 0 531 430" fill="none" xmlns="http://www.w3.org/2000/svg">
<path opacity="0.24" d="M172.957 9.68756C136.601 24.0419 115.503 60.9248 87.9847 88.6313C72.2034 104.558 53.907 117.703 37.6819 133.168C21.4568 148.632 7.10566 167.162 2.17401 188.974C-7.20599 230.317 18.9416 270.698 25.7867 312.533C27.9665 325.895 28.1934 339.679 32.5431 352.491C35.9854 362.63 41.9034 371.797 48.7485 380.001C76.4742 413.465 120.849 432.535 164.317 429.666C192.989 427.77 220.538 417.012 249.289 415.823C292.619 414.025 336.352 434.068 378.38 423.447C397.761 418.534 414.923 407.481 431.415 396.222C464.141 373.87 498.209 346.458 505.814 307.66C511.396 279.167 501.454 249.132 508.388 220.944C512.412 204.586 521.871 190.055 526.862 173.961C537.465 139.839 526.142 101.021 501.987 74.6208C477.832 48.2211 442.383 33.6409 406.658 30.546C383.233 28.5122 359.659 31.0765 336.145 30.6246C278.761 29.5831 232.502 -13.8236 172.957 9.68756Z" fill="#00BABA" fill-opacity="0.5"/>
<path opacity="0.24" d="M123.907 349.789C121.461 350.28 118.857 350.919 117.21 352.736C114.892 355.369 115.415 359.614 117.536 362.414C119.656 365.214 122.96 366.806 126.235 368.053C141.661 373.948 158.606 373.998 175.118 374.017C208.446 374.017 243.036 373.821 273.218 359.722C248.826 350.339 226.111 350.801 200.723 349.013C174.309 347.234 150.331 344.405 123.907 349.789Z" fill="#68E1FD"/>
<path d="M324.289 196.362L308.607 204.919L286.375 259.615L333.443 233.942L324.289 196.362Z" fill="#68E1FD"/>
<path d="M391.903 196.362L407.586 204.919L429.818 259.615L382.75 233.942L391.903 196.362Z" fill="#68E1FD"/>
<path d="M324.289 196.362L308.607 204.919L286.375 259.615L333.443 233.942L324.289 196.362Z" fill="url(#paint0_linear_4244_58284)"/>
<path d="M391.903 196.362L407.586 204.919L429.818 259.615L382.75 233.942L391.903 196.362Z" fill="url(#paint1_linear_4244_58284)"/>
<path d="M205.871 346.252C205.567 347.315 205.631 348.448 206.054 349.469C206.476 350.491 207.232 351.341 208.199 351.882C209.16 352.31 210.17 352.62 211.207 352.805C214.388 353.582 217.333 355.116 219.788 357.276C220.188 357.538 220.513 357.898 220.734 358.321C220.955 358.744 221.064 359.216 221.05 359.693C220.824 360.783 219.541 361.245 218.456 361.5C216.175 362.118 213.846 362.542 211.493 362.768C206.709 363.092 201.975 361.785 197.359 360.459C195.603 359.958 192.96 359.201 192.555 357.168C192.474 355.766 192.54 354.36 192.753 352.972L193.058 345.898" fill="#606161"/>
<path d="M178.62 354.692C178.41 355.231 178.362 355.82 178.481 356.387C178.6 356.954 178.881 357.474 179.291 357.885C180.12 358.693 181.068 359.372 182.102 359.899C184.83 361.548 187.236 363.675 189.203 366.177C190.111 367.326 190.959 368.83 190.387 370.176C190.082 370.8 189.598 371.32 188.996 371.669C187.027 372.81 184.758 373.331 182.486 373.162C176.756 373.015 168.283 369.449 166.626 363.269C166.103 361.353 166.675 358.73 166.754 356.755L166.961 351.99" fill="#606161"/>
<path d="M211.099 236.968L206.641 347.991C204.92 349.25 202.857 349.959 200.723 350.025C196.61 350.26 195.87 350.555 192.911 347.873L179.99 231.437L211.099 230.789V236.968Z" fill="#606161"/>
<path d="M211.099 236.968L206.641 347.991C204.92 349.25 202.857 349.959 200.723 350.025C196.61 350.26 195.87 350.555 192.911 347.873L179.99 231.437L211.099 230.789V236.968Z" fill="url(#paint2_linear_4244_58284)"/>
<path d="M193.522 246.941L180.699 354.918C180.699 354.918 178.845 356.814 173.795 356.883C168.064 356.951 167.542 356.175 166.259 353.287L163.725 229.433L193.167 234.434L193.522 246.941Z" fill="#606161"/>
<path d="M193.522 246.941L180.699 354.918C180.699 354.918 178.845 356.814 173.795 356.883C168.064 356.951 167.542 356.175 166.259 353.287L163.725 229.433L193.167 234.434L193.522 246.941Z" fill="url(#paint3_linear_4244_58284)"/>
<path d="M197.518 236.133C193.5 237.487 189.362 238.454 185.159 239.022C179.586 239.592 173.747 236.91 169.378 236.684C163.548 236.389 163.391 236.202 163.391 232.419C163.391 230.513 211.859 225.945 211.859 225.945C211.859 225.945 211.632 229.433 211.642 232.655C211.642 235.072 210.606 234.935 206.197 235.19C201.788 235.446 200.94 234.109 197.518 236.133Z" fill="#F2FBFF"/>
<path d="M178.393 150.892C178.393 150.892 170.265 152.994 164.466 157.199C160.885 159.793 163.361 232.42 163.361 232.42C163.716 232.361 179.29 238.649 194.352 236.065C207.174 233.864 211.8 227.871 211.8 227.871C211.8 227.871 212.954 158.182 210.458 155.323C209.354 154.046 197.153 149.556 197.153 149.556C197.153 149.556 191.827 157.534 178.393 150.892Z" fill="#68E1FD"/>
<path d="M178.393 150.892C178.393 150.892 170.265 152.994 164.466 157.199C160.885 159.793 163.361 232.42 163.361 232.42C163.716 232.361 179.29 238.649 194.352 236.065C207.174 233.864 211.8 227.871 211.8 227.871C211.8 227.871 212.954 158.182 210.458 155.323C209.354 154.046 197.153 149.556 197.153 149.556C197.153 149.556 191.827 157.534 178.393 150.892Z" fill="url(#paint4_linear_4244_58284)"/>
<path d="M181.056 134.759L178.393 150.892C178.393 150.892 184.311 159.577 191.876 158.28C199.441 156.983 197.537 153.486 197.537 153.486L196.551 139.858C196.551 139.858 189.755 141.047 181.056 134.759Z" fill="#C8A59C"/>
<path d="M180.119 140.418L181.105 134.759C189.805 141.047 194.322 138.375 194.322 138.375L196.423 145.694C195.241 146.926 193.65 147.688 191.945 147.836C187.724 148.131 183.502 144.84 180.119 140.418Z" fill="#B58B81"/>
<path d="M178.729 148.947L170.838 152.641C170.838 152.641 183.266 165.728 187.053 165.472C187.053 165.472 190.634 158.85 193.957 157.809L178.729 148.947Z" fill="#F2FBFF"/>
<path d="M197.004 151.197C196.353 153.542 195.334 155.77 193.986 157.799C194.726 158.084 199.549 161.434 199.628 163.694C199.628 163.694 204.422 152.887 202.439 151.187C200.781 150.346 199.079 149.595 197.34 148.937L197.004 151.197Z" fill="#F2FBFF"/>
<path d="M167.671 155.284C167.671 155.284 155.47 159.214 154.089 178.618C152.827 196.303 149.651 209.144 152.235 214.381C155.598 221.209 179.122 222.339 179.122 222.339C179.691 218.941 179.546 215.461 178.698 212.121L165.807 206.993C165.807 206.993 167.878 158.31 167.671 155.284Z" fill="#68E1FD"/>
<path d="M174.239 123.009C174.88 131.959 184.102 147.778 193.078 147.139C202.053 146.5 204.667 127.98 204.026 119.03C203.385 110.079 198.345 105 189.35 105.638C187.212 105.79 185.126 106.36 183.21 107.315C181.294 108.271 179.585 109.593 178.182 111.206C176.779 112.819 175.708 114.691 175.032 116.717C174.355 118.742 174.086 120.88 174.239 123.009Z" fill="#C8A59C"/>
<path d="M195.397 220.934C195.18 219.225 195.989 217.584 196.225 214.676C196.462 211.767 194.568 211.011 191.797 210.746C191.037 210.657 190.445 210.569 189.942 210.49C187.358 211.109 189.42 214.234 189.558 216.385C189.696 218.537 189.213 221.622 189.962 222.28C190.278 222.565 192.655 222.437 195.407 222.084C195.451 221.702 195.448 221.315 195.397 220.934Z" fill="#B58B81"/>
<path d="M197.102 137.894C197.102 137.894 196.856 137.668 194.972 137.805C192.735 137.919 190.493 137.76 188.294 137.334C186.844 136.97 186.154 137.196 186.322 139.132C186.489 141.067 188.008 142.786 191.815 142.993C196.086 143.219 197.881 141.617 198.217 139.701C198.453 138.316 197.576 137.854 197.102 137.894Z" fill="#C8A59C"/>
<path d="M180.701 212.426C182.302 212.086 183.88 211.647 185.426 211.109C187.458 210.343 188.099 210.795 191.077 211.109C194.056 211.424 196.098 212.18 195.841 215.157C195.585 218.134 194.727 219.804 194.954 221.543C195.18 223.282 194.638 224.776 191.995 224.835C189.351 224.894 180.701 222.241 180.701 222.241" fill="#C8A59C"/>
<path d="M177.821 211.65H182.348C182.348 211.65 184.321 218.154 181.757 222.664L176.756 222.457C176.756 222.457 178.452 216.13 177.821 211.65Z" fill="#F2FBFF"/>
<path d="M180.109 214.804C180.66 214.804 181.106 214.333 181.106 213.752C181.106 213.172 180.66 212.701 180.109 212.701C179.559 212.701 179.113 213.172 179.113 213.752C179.113 214.333 179.559 214.804 180.109 214.804Z" fill="#D2E8EC"/>
<path d="M197.754 127.233C197.606 126.664 197.573 126.072 197.656 125.49C197.739 124.909 197.936 124.349 198.238 123.844C198.533 123.336 198.928 122.892 199.399 122.54C199.87 122.187 200.408 121.932 200.98 121.79C201.559 121.612 202.169 121.553 202.772 121.616C203.376 121.68 203.96 121.864 204.489 122.159C205.019 122.453 205.483 122.852 205.854 123.33C206.225 123.808 206.494 124.356 206.646 124.941C206.798 125.526 206.83 126.135 206.739 126.733C206.648 127.33 206.436 127.903 206.117 128.416C205.797 128.93 205.377 129.374 204.88 129.721C204.384 130.068 203.822 130.311 203.229 130.436H203.071C201.941 130.689 200.757 130.496 199.766 129.899C198.775 129.302 198.055 128.347 197.754 127.233ZM201.246 122.832C200.372 123.058 199.623 123.621 199.165 124.396C198.706 125.172 198.575 126.096 198.8 126.968C198.967 127.614 199.321 128.198 199.819 128.645C200.317 129.092 200.935 129.383 201.598 129.482C202.261 129.582 202.938 129.484 203.546 129.202C204.153 128.921 204.664 128.467 205.014 127.898C205.364 127.329 205.539 126.669 205.516 126.002C205.492 125.335 205.272 124.69 204.883 124.146C204.494 123.603 203.952 123.186 203.327 122.947C202.701 122.708 202.019 122.657 201.364 122.802L201.246 122.832Z" fill="#292F67"/>
<path d="M188.591 130.505C188.014 130.168 187.509 129.72 187.106 129.187C186.703 128.654 186.41 128.047 186.244 127.401C185.994 126.43 186.038 125.408 186.371 124.462C186.704 123.517 187.31 122.691 188.114 122.089C188.918 121.486 189.883 121.135 190.887 121.078C191.891 121.022 192.889 121.263 193.756 121.772C194.623 122.28 195.319 123.033 195.756 123.935C196.194 124.837 196.353 125.848 196.214 126.84C196.075 127.832 195.644 128.761 194.976 129.51C194.307 130.258 193.431 130.793 192.458 131.046H192.27C191.02 131.341 189.703 131.148 188.591 130.505ZM190.169 122.262C189.654 122.392 189.17 122.623 188.745 122.942C188.321 123.26 187.964 123.66 187.696 124.117C187.428 124.574 187.254 125.08 187.184 125.605C187.114 126.13 187.15 126.664 187.289 127.175C187.487 127.934 187.905 128.618 188.491 129.142C189.076 129.667 189.803 130.008 190.582 130.124C191.361 130.239 192.156 130.125 192.87 129.793C193.584 129.462 194.184 128.929 194.596 128.261C195.008 127.593 195.213 126.818 195.187 126.035C195.16 125.251 194.903 124.492 194.447 123.853C193.991 123.213 193.357 122.722 192.622 122.439C191.888 122.156 191.087 122.095 190.317 122.262H190.169Z" fill="#292F67"/>
<path d="M197.636 126.172L198.672 125.868C198.606 125.66 198.494 125.47 198.343 125.312C198.193 125.154 198.009 125.031 197.804 124.954C197.347 124.829 196.868 124.806 196.401 124.886C195.934 124.966 195.491 125.147 195.102 125.416L195.614 126.398C196.67 125.829 197.183 125.888 197.39 125.976C197.494 126.007 197.583 126.078 197.636 126.172Z" fill="#292F67"/>
<path d="M186.667 125.887L186.627 124.816L180.473 124.993L180.522 126.064L186.667 125.887Z" fill="#292F67"/>
<path d="M210.458 155.323C210.458 155.323 217.273 174.246 221.514 189.583C225.756 204.92 238.282 189.848 238.282 189.848C238.282 189.848 245.186 189.583 245.443 193.778C245.699 197.973 241.498 211.463 229.523 211.758C217.549 212.053 204.865 196.421 204.865 196.421L210.458 155.323Z" fill="#68E1FD"/>
<path d="M228.794 221.072L204.441 220.718C203.811 220.754 203.18 220.641 202.601 220.39C202.022 220.138 201.51 219.754 201.107 219.27C200.704 218.785 200.421 218.213 200.281 217.599C200.14 216.986 200.146 216.348 200.299 215.737L209.6 172.851C209.963 171.47 210.774 170.248 211.907 169.374C213.039 168.499 214.43 168.022 215.863 168.017L240.216 168.371C240.847 168.333 241.478 168.444 242.059 168.695C242.639 168.946 243.151 169.33 243.555 169.815C243.958 170.3 244.242 170.873 244.381 171.488C244.521 172.102 244.513 172.741 244.358 173.352L235.067 216.238C234.702 217.62 233.889 218.842 232.755 219.716C231.62 220.591 230.228 221.067 228.794 221.072Z" fill="#68E1FD"/>
<path d="M228.794 221.072L204.441 220.718C203.811 220.754 203.18 220.641 202.601 220.39C202.022 220.138 201.51 219.754 201.107 219.27C200.704 218.785 200.421 218.213 200.281 217.599C200.14 216.986 200.146 216.348 200.299 215.737L209.6 172.851C209.963 171.47 210.774 170.248 211.907 169.374C213.039 168.499 214.43 168.022 215.863 168.017L240.216 168.371C240.847 168.333 241.478 168.444 242.059 168.695C242.639 168.946 243.151 169.33 243.555 169.815C243.958 170.3 244.242 170.873 244.381 171.488C244.521 172.102 244.513 172.741 244.358 173.352L235.067 216.238C234.702 217.62 233.889 218.842 232.755 219.716C231.62 220.591 230.228 221.067 228.794 221.072Z" fill="url(#paint5_linear_4244_58284)"/>
<path d="M228.962 221.327L205.665 220.983C205.062 221.013 204.461 220.902 203.909 220.66C203.357 220.417 202.87 220.048 202.487 219.584C202.103 219.12 201.834 218.573 201.701 217.987C201.568 217.401 201.574 216.792 201.719 216.208L210.596 175.17C210.948 173.848 211.727 172.678 212.812 171.842C213.898 171.005 215.231 170.548 216.603 170.542L239.91 170.886C240.513 170.854 241.116 170.963 241.669 171.206C242.222 171.448 242.71 171.816 243.094 172.281C243.477 172.745 243.746 173.293 243.879 173.88C244.011 174.467 244.003 175.077 243.855 175.661L234.979 216.7C234.627 218.023 233.846 219.194 232.759 220.031C231.671 220.867 230.336 221.323 228.962 221.327Z" fill="#68E1FD"/>
<path d="M244.655 191.823C244.636 190.872 244.432 189.934 244.053 189.062C243.793 188.175 243.27 187.388 242.554 186.802C241.761 186.357 240.859 186.14 239.95 186.173C239.032 186.173 238.105 186.173 237.188 186.173C236.176 186.157 235.171 186.337 234.229 186.704C232.881 187.435 231.834 188.613 231.27 190.035C230.008 192.717 229.741 196.126 231.546 198.474C232.343 199.407 233.282 200.209 234.328 200.852C235.462 201.628 236.793 202.443 238.125 202.08C238.759 201.858 239.338 201.503 239.822 201.039L241.794 199.408C242.467 198.909 243.037 198.285 243.471 197.57C243.833 196.647 244.007 195.662 243.984 194.672C244.255 193.734 244.479 192.783 244.655 191.823Z" fill="#C8A59C"/>
<path d="M202.823 107.426C201.558 104.437 199.707 101.728 197.379 99.4584L197.191 101.256C193.495 99.5747 189.505 98.6269 185.444 98.4661L185.799 99.7237C184.322 99.3561 182.905 98.7839 181.588 98.0239L180.315 100.284C179.451 99.6004 178.503 99.0293 177.494 98.5839L175.847 104.479C175.382 104.231 174.951 103.924 174.565 103.565C174.131 103.27 173.431 103.182 173.154 103.624C173.048 103.837 173.003 104.075 173.026 104.312V106.847L170.6 105.982C170.496 105.934 170.384 105.909 170.269 105.909C170.155 105.909 170.042 105.934 169.939 105.982C169.858 106.049 169.792 106.131 169.745 106.224C169.697 106.317 169.669 106.418 169.663 106.523C167.897 115.306 171.635 126.733 177.445 133.561C177.668 132.509 177.558 131.414 177.129 130.427C176.646 129.169 175.157 128.462 175.413 127.135C175.481 126.465 175.796 125.843 176.297 125.389C176.797 124.936 177.449 124.683 178.125 124.679C180.009 124.895 179.309 125.583 180.65 126.919C181.124 124.316 179.99 120.042 180.808 117.536C181.079 116.877 181.502 116.29 182.041 115.822C182.581 115.355 183.222 115.019 183.915 114.843C184.608 114.666 185.333 114.653 186.032 114.805C186.73 114.957 187.384 115.27 187.939 115.719C187.88 114.048 189.853 112.978 191.53 113.036C193.206 113.095 195.11 113.734 196.885 113.95C198.395 114.127 199.943 115.178 201.393 115.159C205.121 115.1 203.622 109.519 202.823 107.426Z" fill="#606161"/>
<path opacity="0.24" d="M357.273 340.534C372.269 340.534 384.426 339.06 384.426 337.243C384.426 335.425 372.269 333.951 357.273 333.951C342.276 333.951 330.119 335.425 330.119 337.243C330.119 339.06 342.276 340.534 357.273 340.534Z" fill="#68E1FD"/>
<path opacity="0.24" d="M355.626 362.001C379.948 362.001 399.665 359.613 399.665 356.667C399.665 353.72 379.948 351.332 355.626 351.332C331.303 351.332 311.586 353.72 311.586 356.667C311.586 359.613 331.303 362.001 355.626 362.001Z" fill="#68E1FD"/>
<path d="M356.445 324.224C394.544 324.224 425.429 320.481 425.429 315.863C425.429 311.245 394.544 307.502 356.445 307.502C318.346 307.502 287.461 311.245 287.461 315.863C287.461 320.481 318.346 324.224 356.445 324.224Z" stroke="white" stroke-width="4.36952" stroke-miterlimit="10"/>
<path d="M357.984 57.4956C357.984 57.4956 283.861 100.853 327.408 236.074H387.83C387.83 236.074 432.689 128.471 357.984 57.4956Z" fill="#68E1FD"/>
<path d="M357.984 57.4956C357.984 57.4956 283.861 100.853 327.408 236.074H387.83C387.83 236.074 432.689 128.471 357.984 57.4956Z" fill="url(#paint6_linear_4244_58284)"/>
<path d="M356.72 165.679C367.926 165.679 377.009 156.63 377.009 145.469C377.009 134.307 367.926 125.259 356.72 125.259C345.515 125.259 336.432 134.307 336.432 145.469C336.432 156.63 345.515 165.679 356.72 165.679Z" fill="#68E1FD"/>
<path d="M332.477 283.578L339.933 270.049C341.252 286.657 345.346 302.928 352.045 318.192C364.088 306.254 367.107 288.235 369.434 271.474C372.854 279.701 375.908 288.062 378.597 296.557C384.063 285.758 385.846 273.479 383.677 261.58L388.313 269.44C391.481 258.039 390.114 245.859 384.496 235.436C374.922 236.143 365.328 236.612 355.714 236.841C351.112 236.959 346.489 237.018 341.847 237.018C338.799 237.018 333.187 235.829 330.405 237.372C325.059 240.319 327.012 253.023 327.348 258.24C327.625 262.554 328.195 266.844 329.054 271.081C329.458 273.076 333.236 282.203 332.477 283.578Z" fill="#68E1FD"/>
<path d="M332.477 283.578L339.933 270.049C341.252 286.657 345.346 302.928 352.045 318.192C364.088 306.254 367.107 288.235 369.434 271.474C372.854 279.701 375.908 288.062 378.597 296.557C384.063 285.758 385.846 273.479 383.677 261.58L388.313 269.44C391.481 258.039 390.114 245.859 384.496 235.436C374.922 236.143 365.328 236.612 355.714 236.841C351.112 236.959 346.489 237.018 341.847 237.018C338.799 237.018 333.187 235.829 330.405 237.372C325.059 240.319 327.012 253.023 327.348 258.24C327.625 262.554 328.195 266.844 329.054 271.081C329.458 273.076 333.236 282.203 332.477 283.578Z" fill="url(#paint7_linear_4244_58284)"/>
<path d="M342.734 266.591L347.271 258.338C348.081 268.465 350.581 278.387 354.668 287.695C362.007 280.415 363.851 269.421 365.272 259.203C367.363 264.227 369.227 269.329 370.864 274.51C374.196 267.921 375.284 260.43 373.961 253.17L376.782 257.984C378.73 251.015 377.896 243.565 374.454 237.195C368.615 237.627 362.766 237.915 356.907 238.059C354.087 238.125 351.266 238.158 348.445 238.158C346.59 238.158 343.168 237.431 341.471 238.374C338.207 240.191 339.39 247.924 339.597 251.146C339.771 253.786 340.121 256.412 340.643 259.006C340.889 260.185 343.188 265.756 342.734 266.591Z" fill="url(#paint8_linear_4244_58284)"/>
<path d="M342.834 71.2998C342.834 71.2998 358.201 76.4579 370.698 71.2998L358.29 57.8592C357.994 57.5388 357.632 57.2854 357.229 57.1164C356.827 56.9474 356.392 56.8667 355.955 56.8798C355.518 56.8928 355.089 56.9993 354.697 57.1921C354.305 57.3848 353.96 57.6592 353.684 57.9968L342.834 71.2998Z" fill="#68E1FD"/>
<path d="M342.834 71.3C342.834 71.3 358.201 76.4581 370.698 71.3L358.142 57.7023C357.864 57.4019 357.525 57.1645 357.147 57.006C356.77 56.8476 356.362 56.7719 355.953 56.784C355.543 56.7961 355.141 56.8957 354.773 57.0762C354.405 57.2567 354.081 57.5137 353.822 57.83L342.834 71.3Z" fill="url(#paint9_linear_4244_58284)"/>
<path d="M383.006 285.337C393.343 286.32 399.932 287.921 399.932 289.67C399.932 292.775 379.219 295.29 353.574 295.29C327.93 295.29 307.217 292.775 307.217 289.67C307.217 287.106 321.459 284.934 340.9 284.266" stroke="white" stroke-width="2.93412" stroke-miterlimit="10"/>
<defs>
<linearGradient id="paint0_linear_4244_58284" x1="316.537" y1="181.86" x2="295.151" y2="393.084" gradientUnits="userSpaceOnUse">
<stop stop-color="#010101" stop-opacity="0"/>
<stop offset="0.95" stop-color="#010101"/>
</linearGradient>
<linearGradient id="paint1_linear_4244_58284" x1="411.916" y1="191.508" x2="390.54" y2="402.733" gradientUnits="userSpaceOnUse">
<stop stop-color="#010101" stop-opacity="0"/>
<stop offset="0.95" stop-color="#010101"/>
</linearGradient>
<linearGradient id="paint2_linear_4244_58284" x1="228.853" y1="317.199" x2="105.698" y2="188.259" gradientUnits="userSpaceOnUse">
<stop stop-color="#010101" stop-opacity="0"/>
<stop offset="0.95" stop-color="#010101"/>
</linearGradient>
<linearGradient id="paint3_linear_4244_58284" x1="211.473" y1="305.803" x2="85.7889" y2="262.676" gradientUnits="userSpaceOnUse">
<stop stop-color="#010101" stop-opacity="0"/>
<stop offset="0.95" stop-color="#010101"/>
</linearGradient>
<linearGradient id="paint4_linear_4244_58284" x1="188.68" y1="180.219" x2="173.941" y2="370.538" gradientUnits="userSpaceOnUse">
<stop stop-color="#010101" stop-opacity="0"/>
<stop offset="0.95" stop-color="#010101"/>
</linearGradient>
<linearGradient id="paint5_linear_4244_58284" x1="220.716" y1="149.644" x2="226.333" y2="307.189" gradientUnits="userSpaceOnUse">
<stop stop-color="#010101" stop-opacity="0"/>
<stop offset="0.95" stop-color="#010101"/>
</linearGradient>
<linearGradient id="paint6_linear_4244_58284" x1="303.608" y1="150.361" x2="386.783" y2="146.034" gradientUnits="userSpaceOnUse">
<stop stop-color="white" stop-opacity="0"/>
<stop offset="0.95" stop-color="white"/>
</linearGradient>
<linearGradient id="paint7_linear_4244_58284" x1="356.78" y1="305.351" x2="361.918" y2="132.783" gradientUnits="userSpaceOnUse">
<stop stop-color="#010101" stop-opacity="0"/>
<stop offset="0.95" stop-color="#010101"/>
</linearGradient>
<linearGradient id="paint8_linear_4244_58284" x1="357.558" y1="279.875" x2="360.68" y2="174.619" gradientUnits="userSpaceOnUse">
<stop stop-color="#010101" stop-opacity="0"/>
<stop offset="0.95" stop-color="#010101"/>
</linearGradient>
<linearGradient id="paint9_linear_4244_58284" x1="364.06" y1="66.7609" x2="324.428" y2="59.8411" gradientUnits="userSpaceOnUse">
<stop stop-color="#010101" stop-opacity="0"/>
<stop offset="0.95" stop-color="#010101"/>
</linearGradient>
</defs>
</svg>
