<svg width="120" height="120" viewBox="0 0 120 120" fill="none" xmlns="http://www.w3.org/2000/svg">
<path d="M109.842 78.5879L119.098 78.5808L109.849 69.3319L109.842 78.5879Z" fill="#00BABA" fill-opacity="0.3"/>
<path d="M95.9761 64.7217L105.232 64.7146L95.9832 55.4657L95.9761 64.7217Z" fill="#00BABA" fill-opacity="0.3"/>
<path d="M82.1099 50.855L91.3659 50.8479L82.117 41.599L82.1099 50.855Z" fill="#00BABA" fill-opacity="0.3"/>
<path d="M68.2437 36.9888L77.4997 36.9817L68.2508 27.7328L68.2437 36.9888Z" fill="#00BABA" fill-opacity="0.3"/>
<path d="M54.3765 23.1226L63.6325 23.1155L54.3836 13.8665L54.3765 23.1226Z" fill="#00BABA" fill-opacity="0.3"/>
<path d="M40.5103 9.25587L49.7663 9.24881L40.5174 -0.000159815L40.5103 9.25587Z" fill="#00BABA" fill-opacity="0.3"/>
<path d="M81.8198 78.8779L91.0688 78.878L81.8199 69.629L81.8198 78.8779Z" fill="#00BABA" fill-opacity="0.3"/>
<path d="M67.9536 65.0117L77.2026 65.0117L67.9536 55.7628L67.9536 65.0117Z" fill="#00BABA" fill-opacity="0.3"/>
<path d="M54.0875 51.1451L63.3364 51.145L54.0875 41.8961L54.0875 51.1451Z" fill="#00BABA" fill-opacity="0.3"/>
<path d="M40.2212 37.2789L49.4702 37.2788L40.2212 28.0299L40.2212 37.2789Z" fill="#00BABA" fill-opacity="0.3"/>
<path d="M53.7896 79.1748L63.0385 79.1748L53.7896 69.9259L53.7896 79.1748Z" fill="#00BABA" fill-opacity="0.3"/>
<path d="M39.9234 65.3086L49.1723 65.3086L39.9234 56.0597L39.9234 65.3086Z" fill="#00BABA" fill-opacity="0.3"/>
<path d="M95.4244 79.1324L104.673 79.1324L95.4243 69.8834L95.4244 79.1324Z" fill="#00BABA" fill-opacity="0.3"/>
<path d="M81.5579 65.2659L90.8139 65.273L81.5579 56.0169L81.5579 65.2659Z" fill="#00BABA" fill-opacity="0.3"/>
<path d="M67.6917 51.3997L76.9477 51.4068L67.6917 42.1508L67.6917 51.3997Z" fill="#00BABA" fill-opacity="0.3"/>
<path d="M53.8326 37.5406L63.0815 37.5406L53.8255 28.2846L53.8326 37.5406Z" fill="#00BABA" fill-opacity="0.3"/>
<path d="M39.9664 23.6739L49.2153 23.6739L39.9593 14.4178L39.9664 23.6739Z" fill="#00BABA" fill-opacity="0.3"/>
<path d="M67.8049 79.0193L77.061 79.0264L67.805 69.7703L67.8049 79.0193Z" fill="#00BABA" fill-opacity="0.3"/>
<path d="M53.9388 65.1531L63.1948 65.1602L53.9388 55.9042L53.9388 65.1531Z" fill="#00BABA" fill-opacity="0.3"/>
<path d="M40.0796 51.2935L49.3286 51.2935L40.0726 42.0375L40.0796 51.2935Z" fill="#00BABA" fill-opacity="0.3"/>
<path d="M39.2874 79.804L48.5434 79.8111L39.2874 70.5551L39.2874 79.804Z" fill="#00BABA" fill-opacity="0.3"/>
</svg>
