<svg width="144" height="121" viewBox="0 0 144 121" fill="none" xmlns="http://www.w3.org/2000/svg">
<path d="M58.7413 68.3142V120.999H0V79.4077C0 56.8885 3.24842 40.5872 9.74526 30.5037C18.2637 17.0625 31.7563 6.89455 50.2228 0L63.6139 17.6497C61.7526 18.2551 59.9285 18.9706 58.1513 19.7923C50.659 23.2485 44.0844 28.4297 38.9613 34.9149C28.716 48.4564 29.774 64.4198 30.1374 68.3105L58.7413 68.3142Z" fill="#E8EDEF"/>
<path d="M139.132 68.3142V120.999H80.397V79.4077C80.397 56.8885 83.6405 40.5872 90.1275 30.5037C98.6533 17.0625 112.147 6.89455 130.61 0L144 17.6497C132.843 21.5153 124.627 27.2716 119.352 34.9187C114.077 42.5657 111.134 53.6975 110.523 68.3142H139.132Z" fill="#E8EDEF"/>
</svg>
