<svg width="240" height="125" viewBox="0 0 240 125" fill="none" xmlns="http://www.w3.org/2000/svg">
<g clip-path="url(#clip0_5084_44435)">
<path d="M199.582 123.359C201.268 122.529 203.057 121.926 204.901 121.565C207.488 120.935 209.939 120.346 211.852 118.407C213.764 116.469 214.354 113.984 214.966 111.359C215.618 108.59 216.288 105.733 218.567 103.422C220.846 101.111 223.663 100.421 226.378 99.7635C228.971 99.1346 231.416 98.5445 233.328 96.6023C235.241 94.66 235.831 92.1828 236.443 89.5581C236.807 87.6909 237.401 85.8761 238.212 84.1554L239.833 85.0314C239.096 86.6115 238.558 88.2783 238.23 89.9903C237.577 92.7516 236.907 95.616 234.629 97.9258C232.351 100.236 229.539 100.927 226.818 101.58C224.225 102.209 221.78 102.803 219.868 104.742C217.955 106.68 217.366 109.16 216.753 111.79C216.101 114.551 215.431 117.415 213.152 119.725C210.873 122.035 208.056 122.726 205.331 123.378C203.637 123.703 201.994 124.249 200.442 125.002L199.582 123.359ZM29.9389 123.376C27.2139 122.724 24.3971 122.033 22.1183 119.723C19.8395 117.413 19.1697 114.549 18.5175 111.788C17.9054 109.155 17.3206 106.678 15.403 104.74C13.4855 102.801 11.0465 102.204 8.45816 101.578C5.72437 100.925 2.91636 100.234 0.637542 97.9239C0.410377 97.6938 0.198626 97.4566 0.00205295 97.2155V93.6162C0.444059 94.7295 1.1016 95.7432 1.93713 96.6023C3.84883 98.5445 6.29352 99.1375 8.8877 99.7635C11.6127 100.421 14.4236 101.106 16.6985 103.422C18.9735 105.737 19.6471 108.598 20.2993 111.361C20.9115 113.985 21.5012 116.466 23.4139 118.409C25.3265 120.352 27.7705 120.937 30.3647 121.567C32.2093 121.927 33.9979 122.531 35.6839 123.36L34.8245 125.002C33.2738 124.249 31.6311 123.702 29.938 123.376H29.9389ZM72.8147 123.359C70.0897 122.707 67.2671 122.022 64.9824 119.706C62.6977 117.39 62.0221 114.526 61.3816 111.759C60.7577 109.135 60.1737 106.644 58.2571 104.705C56.3405 102.767 53.8947 102.17 51.3005 101.544C48.5755 100.885 45.7588 100.205 43.4682 97.8896C41.1777 95.5739 40.5138 92.7088 39.8675 89.9465C39.2494 87.314 38.6656 84.8313 36.7529 82.8871C34.8403 80.9429 32.3847 80.3517 29.7964 79.7316C27.0714 79.0686 24.2488 78.387 21.9641 76.0771C19.6794 73.7673 19.0097 70.8915 18.3633 68.1302C17.7394 65.4976 17.1615 63.0129 15.2488 61.0746C13.3361 59.1362 10.8806 58.5393 8.29226 57.9133C5.56725 57.2503 2.74463 56.5706 0.459958 54.2608C0.297232 54.095 0.142547 53.9277 -0.00390625 53.758V50.3264C0.425901 51.2953 1.02497 52.1798 1.76526 52.9392C3.67794 54.8892 6.12762 55.4744 8.7218 56.1004C11.4468 56.7654 14.2636 57.445 16.5541 59.7549C18.8446 62.0647 19.5085 64.9356 20.1549 67.7017C20.7788 70.3255 21.3567 72.819 23.2694 74.7574C25.1821 76.6957 27.6376 77.2907 30.2259 77.9167C32.951 78.5797 35.7736 79.2555 38.0582 81.5712C40.3429 83.8869 41.0176 86.7519 41.659 89.5181C42.2829 92.1419 42.8611 94.6354 44.7836 96.5737C46.706 98.5121 49.1458 99.109 51.7341 99.7349C54.4679 100.398 57.2819 101.078 59.5724 103.388C61.8629 105.697 62.5268 108.568 63.1732 111.331C63.7912 113.963 64.375 116.448 66.2877 118.39C68.2004 120.332 70.6501 120.923 73.2442 121.546C75.0916 121.912 76.8832 122.519 78.5742 123.347L77.7151 124.989C76.1591 124.236 74.5119 123.688 72.8147 123.359ZM156.694 123.347C158.385 122.519 160.177 121.914 162.024 121.547C164.612 120.928 167.062 120.34 168.981 118.39C170.899 116.44 171.477 113.96 172.096 111.331C172.743 108.567 173.412 105.708 175.702 103.388C177.992 101.067 180.808 100.398 183.534 99.7349C186.122 99.1119 188.566 98.5237 190.491 96.5756C192.415 94.6275 192.982 92.1438 193.606 89.52C194.253 86.7528 194.917 83.8937 197.206 81.5731C199.496 79.2525 202.314 78.5816 205.039 77.9186C207.627 77.2956 210.083 76.7075 211.995 74.7574C213.908 72.8073 214.492 70.3255 215.11 67.7017C215.757 64.9346 216.427 62.0754 218.711 59.7549C220.994 57.4343 223.817 56.7654 226.543 56.1004C229.136 55.4773 231.587 54.8911 233.499 52.9411C235.412 50.991 236.002 48.5151 236.614 45.8854C236.973 44.0154 237.568 42.1983 238.383 40.477L240.003 41.353C239.263 42.9333 238.726 44.6027 238.405 46.3177C237.764 49.0907 237.094 51.9421 234.805 54.2627C232.515 56.5833 229.697 57.2522 226.972 57.9152C224.384 58.5383 221.939 59.1284 220.016 61.0765C218.092 63.0246 217.525 65.5025 216.901 68.1321C216.26 70.8934 215.59 73.7584 213.301 76.079C211.011 78.3996 208.193 79.0704 205.468 79.7335C202.881 80.3565 200.43 80.9448 198.512 82.889C196.593 84.8332 196.015 87.3207 195.397 89.9504C194.75 92.7116 194.08 95.5758 191.796 97.8915C189.513 100.207 186.69 100.887 183.964 101.546C181.371 102.169 178.926 102.763 177.008 104.707C175.089 106.651 174.511 109.137 173.893 111.761C173.245 114.528 172.576 117.387 170.292 119.708C168.008 122.028 165.18 122.709 162.454 123.36C160.758 123.69 159.111 124.236 157.554 124.985L156.694 123.347ZM131.595 123.581C133.284 121.685 133.834 119.329 134.427 116.83C135.074 114.063 135.749 111.204 138.027 108.889C140.306 106.574 143.129 105.892 145.854 105.24C148.441 104.607 150.898 104.018 152.81 102.079C154.723 100.141 155.313 97.6475 155.925 95.0179C156.572 92.2566 157.248 89.3922 159.526 87.0824C161.804 84.7725 164.627 84.0812 167.352 83.4279C169.951 82.799 172.396 82.2109 174.309 80.2667C176.221 78.3225 176.811 75.8407 177.423 73.211C178.071 70.4498 178.745 67.5854 181.024 65.2756C183.303 62.9657 186.126 62.286 188.851 61.623C191.45 60.9932 193.895 60.3983 195.807 58.4599C197.72 56.5215 198.31 54.03 198.922 51.4061C199.569 48.6371 200.244 45.7788 202.522 43.4631C204.801 41.1474 207.624 40.4677 210.349 39.8105C212.948 39.1816 215.393 38.5934 217.306 36.6512C219.218 34.7089 219.808 32.2252 220.42 29.5955C221.067 26.8342 221.742 23.9699 224.021 21.6601C226.3 19.3502 229.122 18.6569 231.847 18.0056C234.309 17.4206 236.645 16.8508 238.506 15.1357L239.737 16.5088C237.51 18.5485 234.856 19.1841 232.277 19.8071C229.678 20.436 227.233 21.03 225.32 22.9684C223.408 24.9067 222.819 27.3983 222.206 30.0221C221.559 32.7892 220.884 35.6495 218.605 37.9652C216.326 40.2809 213.504 40.9607 210.779 41.6139C208.19 42.237 205.735 42.8368 203.822 44.7752C201.909 46.7135 201.321 49.205 200.708 51.8346C200.06 54.5959 199.385 57.4621 197.107 59.772C194.829 62.0818 192.005 62.7674 189.28 63.4245C186.693 64.0495 184.236 64.6416 182.324 66.5858C180.411 68.53 179.822 71.0157 179.209 73.6395C178.562 76.4028 177.887 79.2661 175.608 81.5769C173.33 83.8877 170.507 84.5799 167.782 85.2371C165.194 85.866 162.738 86.4543 160.825 88.3907C158.913 90.3271 158.324 92.8225 157.711 95.4463C157.063 98.2135 156.389 101.077 154.11 103.388C151.831 105.698 149.009 106.385 146.284 107.042C143.685 107.671 141.24 108.259 139.327 110.203C137.414 112.147 136.825 114.629 136.212 117.259C135.6 119.866 134.959 122.576 132.955 124.823L131.595 123.581ZM99.059 117.259C98.4469 114.626 97.8572 112.147 95.9445 110.203C94.0318 108.259 91.588 107.668 88.988 107.042C86.263 106.385 83.4405 105.697 81.1616 103.388C78.8828 101.078 78.207 98.2135 77.5606 95.4463C76.9484 92.8225 76.3588 90.3408 74.4461 88.3907C72.5334 86.4406 70.0779 85.865 67.4896 85.2371C64.7645 84.5799 61.942 83.8926 59.6632 81.5769C57.3844 79.2612 56.7088 76.4028 56.0624 73.6395C55.4503 71.0157 54.8604 68.5339 52.9477 66.5858C51.035 64.6377 48.5795 64.0525 45.9911 63.4245C43.2661 62.7732 40.4436 62.0818 38.1648 59.772C35.886 57.4621 35.2104 54.5959 34.564 51.8346C33.9518 49.202 33.3622 46.7252 31.4495 44.7752C29.5368 42.8251 27.0813 42.2399 24.4929 41.6139C21.7679 40.9607 18.9452 40.275 16.6664 37.9652C14.3876 35.6553 13.7119 32.7892 13.0656 30.0221C12.4534 27.3983 11.8637 24.9184 9.95106 22.9684C8.03838 21.0183 5.59456 20.4331 2.99453 19.8071C1.99962 19.5653 0.991885 19.3195 -9.23597e-05 18.9978V18.0399C-9.23597e-05 17.7084 0.00909467 17.3791 0.02732 17.0515C1.13966 17.4365 2.27391 17.7548 3.42407 18.0056C6.14908 18.6569 8.97183 19.3502 11.2506 21.6601C13.5295 23.9699 14.2051 26.8342 14.8514 29.5955C15.4636 32.2281 16.0533 34.707 17.966 36.6512C19.8786 38.5954 22.3283 39.1864 24.9225 39.8124C27.6475 40.4696 30.47 41.1551 32.7488 43.465C35.0276 45.7748 35.7033 48.6399 36.3496 51.4081C36.9618 54.0319 37.5517 56.5118 39.4644 58.4599C41.3771 60.408 43.8267 60.9951 46.4209 61.623C49.1459 62.286 51.9684 62.9599 54.2473 65.2756C56.5261 67.5913 57.2017 70.4517 57.848 73.213C58.4602 75.8455 59.0499 78.3225 60.9626 80.2667C62.8752 82.2109 65.3191 82.802 67.9191 83.4279C70.6441 84.0812 73.4669 84.7725 75.7457 87.0824C78.0245 89.3922 78.7001 92.2566 79.3465 95.0179C79.9586 97.6504 80.5483 100.129 82.461 102.079C84.3737 104.029 86.8292 104.607 89.4175 105.24C92.1425 105.892 94.9653 106.579 97.2441 108.895C99.5229 111.211 100.199 114.062 100.845 116.83C101.431 119.329 101.984 121.69 103.676 123.581L102.319 124.823C100.313 122.576 99.6713 119.866 99.0543 117.259H99.059ZM217.502 123.564C219.203 121.674 219.763 119.318 220.353 116.83C221.005 114.075 221.676 111.226 223.971 108.918C226.267 106.61 229.095 105.928 231.826 105.271C234.293 104.686 236.64 104.121 238.513 102.411L239.744 103.784C237.517 105.812 234.838 106.447 232.25 107.071C229.661 107.694 227.188 108.288 225.265 110.226C223.341 112.164 222.757 114.64 222.133 117.259C221.508 119.878 220.879 122.57 218.864 124.806L217.502 123.564ZM174.66 123.564C176.361 121.662 176.906 119.301 177.5 116.808C178.147 114.04 178.823 111.181 181.1 108.866C183.378 106.552 186.202 105.869 188.927 105.212C191.514 104.589 193.971 103.995 195.883 102.056C197.796 100.118 198.386 97.6247 198.998 94.995C199.645 92.2337 200.32 89.3694 202.599 87.0595C204.878 84.7497 207.7 84.0583 210.425 83.4051C213.012 82.782 215.469 82.1822 217.382 80.2438C219.294 78.3055 219.884 75.812 220.496 73.1882C221.144 70.4211 221.818 67.5627 224.097 65.247C226.376 62.9313 229.199 62.2516 231.924 61.5945C234.391 61.0046 236.708 60.4376 238.582 58.7284L239.814 60.1014C237.586 62.1373 234.924 62.7825 232.342 63.4055C229.761 64.0285 227.298 64.6303 225.386 66.5686C223.473 68.507 222.884 70.9986 222.271 73.6224C221.624 76.3856 220.96 79.2489 218.671 81.5598C216.381 83.8706 213.569 84.555 210.85 85.218C208.257 85.8411 205.806 86.437 203.889 88.3793C201.971 90.3215 201.387 92.8052 200.774 95.4349C200.132 98.1962 199.452 101.061 197.173 103.37C194.894 105.68 192.077 106.368 189.352 107.025C186.759 107.648 184.309 108.248 182.396 110.186C180.483 112.124 179.889 114.606 179.272 117.236C178.655 119.866 178.024 122.558 176.015 124.806L174.66 123.564ZM55.994 117.236C55.376 114.603 54.7971 112.126 52.8795 110.188C50.9619 108.25 48.5113 107.653 45.923 107.027C43.198 106.37 40.3752 105.682 38.0964 103.372C35.8176 101.062 35.1361 98.1981 34.4956 95.4368C33.8776 92.8042 33.2938 90.3254 31.3811 88.3812C29.4684 86.437 27.0129 85.8459 24.4245 85.2199C21.6995 84.5569 18.8768 83.8774 16.598 81.5617C14.3191 79.246 13.6377 76.3875 12.9972 73.6243C12.385 71.0005 11.7953 68.5187 9.88265 66.5705C7.96997 64.6224 5.51443 64.0353 2.92612 63.4074C1.94976 63.1734 0.973403 62.9358 -0.00295278 62.6209V60.6613C1.09293 61.0365 2.20948 61.3487 3.34111 61.5964C6.06612 62.2535 8.88864 62.9391 11.1675 65.2489C13.4463 67.5588 14.1219 70.423 14.7682 73.1901C15.3804 75.8139 15.9703 78.2957 17.883 80.2457C19.7957 82.1958 22.2512 82.7791 24.8395 83.4051C27.5645 84.0583 30.3871 84.7497 32.6659 87.0595C34.9447 89.3694 35.6203 92.2356 36.2667 94.9969C36.8788 97.6295 37.4685 100.108 39.3812 102.058C41.2939 104.008 43.7494 104.592 46.3377 105.212C49.0627 105.869 51.8855 106.556 54.1643 108.866C56.4431 111.176 57.1187 114.042 57.7651 116.809C58.3509 119.308 58.9045 121.664 60.6043 123.566L59.2473 124.808C57.2418 122.564 56.6061 119.855 55.9969 117.236H55.994ZM13.1321 117.259C12.5141 114.64 11.9302 112.164 9.99993 110.226C8.06967 108.288 5.61981 107.691 3.02075 107.071C2.01803 106.831 1.0018 106.589 0.0039599 106.263V104.307C1.13107 104.695 2.27986 105.016 3.44457 105.269C6.17836 105.926 9.01558 106.602 11.2993 108.918C13.583 111.233 14.2645 114.075 14.9177 116.83C15.5035 119.318 16.0678 121.674 17.7686 123.564L16.4018 124.804C14.3885 122.569 13.7529 119.866 13.129 117.259H13.1321ZM189.222 123.863C189.76 122.337 190.621 120.944 191.747 119.78C194.036 117.47 196.859 116.779 199.59 116.126C202.189 115.497 204.639 114.909 206.563 112.965C208.486 111.02 209.065 108.546 209.687 105.916C210.339 103.161 211.009 100.301 213.3 97.9848C215.59 95.6691 218.406 94.9895 221.138 94.3323C223.737 93.7024 226.193 93.1151 228.111 91.1768C230.028 89.2384 230.613 86.7516 231.235 84.1268C231.887 81.3597 232.557 78.5014 234.842 76.1857C235.984 75.0536 237.359 74.1833 238.872 73.6357L239.525 75.3744C238.258 75.8269 237.105 76.5488 236.146 77.4901C234.229 79.4285 233.645 81.9085 233.022 84.5382C232.375 87.2995 231.7 90.1657 229.409 92.4755C227.119 94.7854 224.303 95.4768 221.571 96.1281C218.972 96.758 216.516 97.351 214.598 99.2893C212.681 101.228 212.097 103.714 211.474 106.339C210.832 109.101 210.152 111.965 207.867 114.275C205.583 116.585 202.761 117.276 200.029 117.927C197.43 118.561 194.973 119.152 193.056 121.089C192.111 122.064 191.39 123.233 190.943 124.514L189.222 123.863ZM146.214 123.852C146.757 122.328 147.618 120.936 148.739 119.769C151.024 117.459 153.846 116.779 156.571 116.12C159.16 115.497 161.615 114.897 163.528 112.959C165.441 111.02 166.03 108.527 166.642 105.903C167.29 103.13 167.964 100.279 170.243 97.9582C172.522 95.6376 175.35 94.9686 178.076 94.3056C180.669 93.6806 183.12 93.0808 185.032 91.1425C186.945 89.2041 187.529 86.7127 188.147 84.083C188.794 81.3159 189.464 78.4605 191.748 76.14C194.031 73.8194 196.86 73.1504 199.586 72.4874C202.173 71.8643 204.63 71.2645 206.536 69.3262C208.443 67.3878 209.033 64.8943 209.661 62.2705C210.302 59.4975 210.972 56.6461 213.261 54.3255C215.551 52.005 218.368 51.336 221.094 50.6711C223.681 50.048 226.138 49.454 228.05 47.5098C229.963 45.5656 230.547 43.0838 231.165 40.4542C231.812 37.6812 232.482 34.8279 234.766 32.5073C235.908 31.3768 237.281 30.5051 238.79 29.9516L239.442 31.6903C238.173 32.1475 237.019 32.875 236.059 33.8232C234.147 35.7655 233.558 38.2589 232.935 40.8827C232.294 43.6557 231.624 46.51 229.334 48.8257C227.045 51.1414 224.228 51.821 221.502 52.484C218.914 53.1071 216.47 53.701 214.545 55.6452C212.621 57.5895 212.044 60.0712 211.431 62.7009C210.783 65.4739 210.114 68.3253 207.83 70.6459C205.546 72.9665 202.724 73.6355 199.998 74.2946C197.41 74.9177 194.96 75.5117 193.041 77.4559C191.123 79.4001 190.545 81.8877 189.927 84.5115C189.279 87.2845 188.61 90.1427 186.326 92.4584C184.042 94.7741 181.213 95.4479 178.494 96.111C175.9 96.7359 173.45 97.324 171.531 99.2741C169.613 101.224 169.035 103.704 168.417 106.33C167.775 109.103 167.105 111.954 164.816 114.275C162.526 116.595 159.708 117.264 156.983 117.927C154.395 118.55 151.94 119.152 150.027 121.089C149.089 122.067 148.372 123.235 147.926 124.514L146.214 123.852ZM85.2466 121.089C83.3348 119.152 80.8783 118.553 78.29 117.927C75.565 117.264 72.7424 116.585 70.4577 114.275C68.173 111.965 67.4984 109.1 66.8569 106.328C66.2389 103.702 65.6551 101.214 63.7326 99.2722C61.8102 97.3299 59.3701 96.7368 56.7818 96.1148C54.048 95.4459 51.2343 94.7722 48.9438 92.4565C46.6533 90.1408 45.9894 87.2835 45.343 84.5115C44.725 81.8877 44.1409 79.4001 42.2283 77.4559C40.3156 75.5117 37.8659 74.9206 35.2717 74.2946C32.5467 73.6355 29.7241 72.9557 27.4394 70.6459C25.1547 68.336 24.485 65.471 23.8386 62.699C23.2265 60.0664 22.6368 57.5817 20.7241 55.6433C18.8114 53.705 16.3559 53.1081 13.7676 52.4821C11.0426 51.8191 8.21995 51.1376 5.93527 48.8238C3.6506 46.5101 2.97497 43.6576 2.33449 40.8827C1.97969 38.7 1.1851 36.6121 -0.00104583 34.7449V32.0255C0.174698 32.1796 0.344557 32.3415 0.508585 32.5073C2.79326 34.8288 3.46303 37.6803 4.10937 40.4523C4.73327 43.0849 5.31145 45.5696 7.22413 47.5079C9.13681 49.4463 11.5923 50.0432 14.1807 50.6692C16.9057 51.3341 19.7283 52.0138 22.013 54.3236C24.2976 56.6335 24.9733 59.4985 25.6138 62.2705C26.2376 64.8943 26.8156 67.3878 28.7283 69.3262C30.641 71.2645 33.0965 71.8614 35.6848 72.4874C38.4098 73.1504 41.2325 73.8262 43.5231 76.14C45.8136 78.4537 46.4775 81.315 47.1239 84.0811C47.7419 86.7137 48.3257 89.2042 50.2384 91.1406C52.1511 93.077 54.6007 93.6758 57.1949 94.3037C59.9199 94.9667 62.7367 95.6464 65.0272 97.9563C67.3177 100.266 67.9817 103.131 68.628 105.903C69.2402 108.527 69.8298 111.015 71.7425 112.959C73.6552 114.903 76.1107 115.494 78.6991 116.12C81.4241 116.779 84.2469 117.457 86.5316 119.767C87.6532 120.934 88.5137 122.327 89.0564 123.852L87.3447 124.514C86.898 123.236 86.1816 122.067 85.2437 121.089H85.2466ZM42.2156 121.089C40.2981 119.152 37.8416 118.561 35.2484 117.927C32.5146 117.276 29.6949 116.585 27.4044 114.275C25.1138 111.965 24.4391 109.101 23.7976 106.339C23.1737 103.714 22.5899 101.226 20.6733 99.2893C18.7568 97.3529 16.2992 96.7541 13.7001 96.1262C10.9663 95.4749 8.14677 94.7893 5.8621 92.4736C3.57742 90.1579 2.89574 87.2995 2.24939 84.5382C1.89912 82.4093 1.13652 80.369 0.0039599 78.5318V75.7762C0.15139 75.9078 0.296809 76.0443 0.433499 76.1838C2.71817 78.4995 3.3879 81.3607 4.04597 84.1268C4.664 86.7506 5.24782 89.2316 7.17026 91.1749C9.0927 93.1181 11.5444 93.7024 14.1435 94.3323C16.8773 94.9895 19.6971 95.675 21.9817 97.9848C24.2664 100.295 24.942 103.159 25.5942 105.915C26.2122 108.547 26.7961 111.026 28.7185 112.965C30.6409 114.903 33.0927 115.5 35.6917 116.126C38.4255 116.779 41.2452 117.47 43.5348 119.78C44.6599 120.945 45.5209 122.337 46.0595 123.863L44.3364 124.514C43.886 123.232 43.1616 122.063 42.2137 121.089H42.2156ZM232.195 123.846C232.732 122.343 233.585 120.972 234.697 119.826C235.825 118.705 237.185 117.844 238.682 117.305L239.329 119.02C238.074 119.467 236.932 120.18 235.98 121.111C235.048 122.075 234.335 123.228 233.891 124.492L232.195 123.846ZM0.0039599 121.928V119.289C0.199231 119.461 0.389885 119.639 0.576043 119.826C1.68644 120.973 2.53947 122.344 3.07843 123.846L1.3834 124.492C1.0507 123.574 0.584874 122.71 0.000861113 121.928H0.0039599ZM139.453 123.947C139.607 123.391 139.733 122.827 139.871 122.262C140.512 119.494 141.193 116.636 143.472 114.326C145.75 112.016 148.573 111.325 151.292 110.672C153.885 110.038 156.342 109.449 158.254 107.51C160.165 105.572 160.756 103.09 161.368 100.461C162.01 97.6934 162.69 94.8349 164.969 92.525C167.248 90.2152 170.065 89.5239 172.79 88.8668C175.383 88.2369 177.839 87.6477 179.746 85.7094C181.653 83.771 182.253 81.2852 182.87 78.6594C183.512 75.8981 184.192 73.0338 186.471 70.724C188.75 68.4141 191.578 67.7344 194.304 67.0714C196.891 66.4376 199.347 65.8466 201.26 63.9102C203.173 61.9738 203.751 59.484 204.375 56.8602C205.022 54.0931 205.692 51.2336 207.975 48.9248C210.259 46.6159 213.077 45.9216 215.802 45.2703C218.389 44.6365 220.846 44.0474 222.759 42.1091C224.671 40.1707 225.249 37.6829 225.873 35.0591C226.52 32.292 227.19 29.4335 229.474 27.1237C231.758 24.8138 234.58 24.1225 237.306 23.4692C237.856 23.3317 238.412 23.1956 238.966 23.0464L239.436 24.8423C238.869 24.9963 238.296 25.1351 237.718 25.2764C235.131 25.9102 232.686 26.5013 230.767 28.4377C228.849 30.3741 228.271 32.858 227.643 35.4876C227.002 38.2548 226.332 41.1132 224.042 43.4231C221.753 45.7329 218.947 46.4262 216.216 47.0775C213.629 47.7113 211.178 48.3004 209.265 50.2388C207.353 52.1771 206.769 54.6706 206.141 57.2944C205.499 60.0616 204.83 62.9199 202.54 65.2356C200.251 67.5513 197.445 68.2309 194.72 68.8901C192.126 69.519 189.676 70.1072 187.763 72.0456C185.85 73.9839 185.262 76.4698 184.639 79.0936C183.997 81.8607 183.327 84.721 181.038 87.0367C178.748 89.3524 175.931 90.0262 173.206 90.6892C170.617 91.3191 168.162 91.9064 166.249 93.8448C164.336 95.7831 163.758 98.2689 163.134 100.899C162.487 103.66 161.812 106.52 159.534 108.83C157.255 111.14 154.432 111.831 151.707 112.488C149.12 113.117 146.675 113.705 144.751 115.65C142.826 117.594 142.249 120.071 141.636 122.696C141.504 123.273 141.367 123.851 141.212 124.427L139.453 123.947ZM93.6285 122.696C93.0164 120.072 92.4267 117.589 90.514 115.65C88.6013 113.71 86.1458 113.114 83.5575 112.488C80.8325 111.831 78.0099 111.144 75.7311 108.836C73.4523 106.528 72.7767 103.66 72.1303 100.899C71.5065 98.2659 70.9283 95.787 69.0156 93.8448C67.1029 91.9025 64.6474 91.3191 62.0591 90.6892C59.334 90.0262 56.5114 89.3465 54.2268 87.0367C51.9421 84.7268 51.2674 81.8607 50.626 79.0936C50.0079 76.4698 49.4241 73.9898 47.5017 72.0456C45.5792 70.1014 43.1393 69.518 40.5451 68.8901C37.8201 68.2309 35.0033 67.5454 32.7245 65.2356C30.4457 62.9257 29.7652 60.0616 29.1237 57.2944C28.4998 54.6706 27.9219 52.1888 26.0092 50.2388C24.0965 48.2887 21.6409 47.7113 19.0477 47.0775C16.3227 46.4262 13.5059 45.7388 11.227 43.4231C8.94823 41.1074 8.26675 38.2557 7.62626 35.4876C7.00237 32.855 6.42442 30.376 4.51174 28.4377C3.24661 27.2299 1.69357 26.3646 -9.23597e-05 25.9239V23.9853C2.18093 24.4906 4.18491 25.5748 5.79964 27.1237C8.08432 29.4335 8.75408 32.291 9.40043 35.0591C10.0243 37.6829 10.6023 40.1707 12.5149 42.1091C14.4276 44.0474 16.8832 44.6365 19.4715 45.2703C22.1965 45.9216 25.019 46.6091 27.2978 48.9248C29.5766 51.2405 30.2523 54.0921 30.8986 56.8602C31.5225 59.484 32.1007 61.966 34.0134 63.9102C35.9261 65.8544 38.3816 66.4376 40.9699 67.0714C43.6949 67.7344 46.5175 68.4083 48.8022 70.724C51.0869 73.0397 51.7615 75.8981 52.403 78.6594C53.021 81.2852 53.6048 83.7671 55.5273 85.7094C57.4497 87.6516 59.8895 88.2369 62.4779 88.8668C65.2117 89.5239 68.0256 90.2094 70.3044 92.525C72.5833 94.8407 73.2638 97.6992 73.9052 100.461C74.5233 103.093 75.1071 105.572 77.0295 107.51C78.952 109.449 81.392 110.038 83.9803 110.672C86.7141 111.325 89.5279 112.01 91.8067 114.326C94.0855 116.642 94.767 119.493 95.4075 122.262C95.5451 122.827 95.6711 123.391 95.8253 123.947L94.0562 124.427C93.8941 123.851 93.7633 123.273 93.6257 122.696H93.6285ZM225.388 123.936C225.542 123.374 225.668 122.82 225.806 122.254C226.458 119.493 227.134 116.64 229.43 114.33C231.726 112.02 234.56 111.34 237.302 110.687C237.863 110.555 238.418 110.419 238.974 110.27L239.449 112.066C238.883 112.22 238.31 112.358 237.726 112.488C235.121 113.111 232.66 113.7 230.73 115.638C228.799 117.577 228.216 120.052 227.597 122.682C227.46 123.254 227.328 123.839 227.174 124.41L225.388 123.936ZM7.67608 122.682C7.05804 120.05 6.46246 117.578 4.54392 115.638C3.27063 114.427 1.70761 113.561 0.0039599 113.124V111.197C2.19724 111.698 4.21461 112.78 5.8435 114.33C8.13989 116.64 8.81447 119.493 9.46765 122.254C9.60532 122.82 9.73125 123.373 9.88551 123.936L8.0999 124.41C7.94173 123.84 7.81088 123.256 7.67322 122.684L7.67608 122.682ZM182.426 123.924C182.57 123.368 182.696 122.808 182.832 122.243C183.48 119.487 184.15 116.634 186.428 114.324C188.707 112.014 191.518 111.329 194.239 110.675C196.827 110.052 199.265 109.464 201.178 107.526C203.091 105.587 203.675 103.112 204.287 100.481C204.928 97.7202 205.598 94.8674 207.877 92.5517C210.156 90.236 212.973 89.5619 215.688 88.9106C218.281 88.2856 220.721 87.6974 222.627 85.7532C224.533 83.8089 225.123 81.3414 225.735 78.7146C226.383 75.9534 227.052 73.0947 229.33 70.7849C231.608 68.475 234.42 67.7952 237.141 67.138C237.697 67.0123 238.246 66.8749 238.796 66.7267L239.272 68.5206C238.704 68.6747 238.138 68.8134 237.571 68.9567C234.983 69.5798 232.544 70.1739 230.632 72.1122C228.719 74.0506 228.135 76.526 227.523 79.1507C226.876 81.9062 226.206 84.7591 223.928 87.0748C221.65 89.3905 218.838 90.0646 216.117 90.7159C213.53 91.3409 211.091 91.9291 209.178 93.8733C207.266 95.8175 206.688 98.2851 206.076 100.91C205.428 103.665 204.758 106.52 202.48 108.83C200.201 111.14 197.384 111.826 194.669 112.477C192.081 113.1 189.643 113.694 187.73 115.633C185.817 117.571 185.233 120.046 184.621 122.671C184.483 123.248 184.347 123.828 184.197 124.404L182.426 123.924ZM50.6553 122.671C50.0431 120.047 49.4582 117.572 47.5465 115.633C45.6348 113.693 43.2008 113.097 40.6076 112.477C37.8933 111.826 35.0765 111.144 32.7967 108.836C30.517 106.528 29.8481 103.668 29.2067 100.91C28.5886 98.2861 28.0096 95.8107 26.0979 93.8733C24.1862 91.9359 21.7463 91.338 19.159 90.7159C16.4398 90.0646 13.6279 89.3865 11.3481 87.0767C9.06835 84.7668 8.39966 81.9091 7.75331 79.1526C7.14113 76.5288 6.55622 74.0516 4.64451 72.1122C3.34643 70.8692 1.74566 69.9863 0.000861113 69.5509V67.6122C2.23447 68.1101 4.28961 69.2077 5.94409 70.7868C8.22291 73.0966 8.89258 75.9543 9.53892 78.7165C10.1511 81.3423 10.7302 83.8177 12.6477 85.7551C14.5653 87.6924 16.9934 88.2904 19.5866 88.9125C22.3009 89.5638 25.1177 90.2438 27.3975 92.5536C29.6773 94.8635 30.3461 97.7211 30.9875 100.483C31.6056 103.116 32.1846 105.582 34.0963 107.528C36.008 109.473 38.4479 110.055 41.0352 110.677C43.7544 111.331 46.5663 112.01 48.8461 114.326C51.1259 116.642 51.7948 119.487 52.4411 122.243C52.5788 122.808 52.7047 123.369 52.8483 123.926L51.0791 124.406C50.9268 123.832 50.7891 123.245 50.6524 122.673L50.6553 122.671ZM117.64 123.705L117.612 123.804C117.062 123.66 116.507 123.523 115.946 123.385C113.221 122.728 110.404 122.042 108.12 119.733C105.835 117.423 105.165 114.557 104.519 111.79C103.907 109.166 103.317 106.684 101.404 104.734C99.4917 102.784 97.042 102.201 94.4478 101.575C91.7228 100.921 88.906 100.23 86.6272 97.9201C84.3484 95.6102 83.6668 92.744 83.0204 89.9827C82.4083 87.3501 81.8186 84.8733 79.9059 82.9233C77.9932 80.9732 75.5436 80.3879 72.9494 79.7678C70.2244 79.1047 67.4076 78.4231 65.1288 76.1133C62.8499 73.8034 62.1694 70.9373 61.528 68.1702C60.9099 65.5464 60.3203 63.0665 58.4037 61.1165C56.4871 59.1664 54.0413 58.589 51.4471 57.9552C48.7221 57.3039 45.9053 56.6125 43.6265 54.3027C41.3477 51.9928 40.6672 49.1285 40.0257 46.3672C39.4077 43.7415 38.818 41.2538 36.9014 39.3116C34.9849 37.3693 32.5391 36.7763 29.9449 36.1484C27.2199 35.4854 24.4031 34.8057 22.1243 32.4959C19.8455 30.186 19.164 27.3218 18.5235 24.5547C17.9055 21.9309 17.3156 19.4491 15.4087 17.4991C13.5019 15.549 11.0405 14.9716 8.4522 14.3378C5.983 13.7479 3.44366 13.1304 1.29568 11.3061C1.53602 10.7091 1.80843 10.1255 2.11185 9.55788C3.99524 11.3519 6.36593 11.9327 8.88103 12.5363C11.606 13.1935 14.4226 13.881 16.7014 16.1889C18.9802 18.4967 19.6619 21.3649 20.3024 24.1262C20.9205 26.7588 21.5101 29.2376 23.4267 31.1857C25.3433 33.1338 27.7891 33.721 30.3833 34.3431C33.1083 35.0003 35.9251 35.6857 38.2039 38.0014C40.4827 40.3171 41.1632 43.1687 41.8047 45.9368C42.4169 48.5694 43.0124 51.0483 44.929 52.9925C46.8456 54.9367 49.2855 55.5277 51.8855 56.1537C54.6047 56.807 57.4273 57.4983 59.7061 59.8082C61.9849 62.118 62.6606 64.9823 63.3069 67.7436C63.9191 70.3762 64.5146 72.8549 66.4214 74.805C68.3283 76.7551 70.7898 77.3403 73.383 77.9662C76.1021 78.6176 78.9248 79.3051 81.2036 81.615C83.4824 83.9248 84.158 86.789 84.8044 89.5562C85.4166 92.18 86.0121 94.6617 87.9189 96.6118C89.8257 98.5619 92.2871 99.1471 94.8754 99.773C97.6004 100.424 100.423 101.116 102.702 103.426C104.981 105.735 105.656 108.6 106.303 111.363C106.915 113.996 107.505 116.468 109.417 118.422C111.329 120.361 113.78 120.95 116.374 121.58L117.643 121.888L118.902 121.58C121.496 120.95 123.946 120.361 125.859 118.422C127.771 116.472 128.362 113.993 128.974 111.363C129.615 108.6 130.285 105.736 132.575 103.426C134.864 101.115 137.676 100.424 140.401 99.773C142.988 99.15 145.445 98.5482 147.357 96.6118C149.27 94.6754 149.86 92.18 150.472 89.5562C151.113 86.789 151.794 83.9307 154.073 81.615C156.352 79.2993 159.174 78.6176 161.899 77.9662C164.488 77.3373 166.937 76.7434 168.856 74.805C170.774 72.8666 171.352 70.3733 171.97 67.7436C172.612 64.9823 173.292 62.118 175.571 59.8082C177.85 57.4983 180.673 56.807 183.392 56.1537C185.991 55.5307 188.436 54.9308 190.353 52.9925C192.271 51.0541 192.85 48.5665 193.468 45.9368C194.109 43.1697 194.791 40.3112 197.069 38.0014C199.346 35.6915 202.17 35.0003 204.889 34.3431C207.482 33.724 209.933 33.124 211.851 31.1857C213.768 29.2473 214.347 26.7559 214.965 24.1262C215.607 21.3649 216.287 18.5046 218.566 16.1889C220.845 13.8732 223.668 13.1935 226.387 12.5363C228.986 11.9132 231.431 11.3134 233.343 9.37506C234.263 8.41593 234.97 7.2755 235.419 6.02529C235.885 6.5465 236.32 7.09372 236.722 7.66494C236.209 8.78451 235.505 9.80668 234.643 10.6872C232.364 13.0029 229.547 13.6884 226.822 14.3416C224.229 14.9754 221.778 15.5645 219.866 17.5029C217.953 19.4412 217.358 21.9347 216.741 24.5585C216.1 27.3256 215.419 30.1889 213.14 32.4997C210.862 34.8105 208.045 35.4892 205.32 36.1522C202.727 36.7772 200.276 37.3712 198.363 39.3154C196.451 41.2596 195.862 43.7453 195.239 46.371C194.597 49.1323 193.917 51.9966 191.638 54.3065C189.359 56.6163 186.543 57.3077 183.818 57.959C181.224 58.5928 178.774 59.1839 176.861 61.1203C174.948 63.0567 174.36 65.5521 173.746 68.1759C173.099 70.9431 172.419 73.8024 170.14 76.1171C167.861 78.4318 165.044 79.1085 162.319 79.7716C159.726 80.3888 157.275 80.9887 155.363 82.9271C153.45 84.8654 152.861 87.3569 152.248 89.9865C151.601 92.7478 150.925 95.6141 148.641 97.9239C146.358 100.234 143.546 100.925 140.821 101.578C138.233 102.207 135.777 102.801 133.864 104.74C131.951 106.678 131.363 109.17 130.75 111.793C130.102 114.56 129.428 117.421 127.143 119.731C124.858 122.041 122.047 122.732 119.322 123.389C118.762 123.526 118.206 123.663 117.657 123.808L117.64 123.705ZM117.64 116.423L117.503 116.788C115.992 116.237 114.619 115.365 113.478 114.233C111.187 111.923 110.523 109.059 109.877 106.297C109.253 103.665 108.675 101.184 106.763 99.2474C104.85 97.311 102.394 96.7141 99.8061 96.0862C97.0811 95.4349 94.2583 94.7435 91.9678 92.4336C89.6773 90.1238 89.0134 87.2576 88.367 84.4963C87.7549 81.8637 87.1652 79.3866 85.2525 77.4482C83.3398 75.5099 80.8843 74.913 78.296 74.287C75.571 73.622 72.7542 72.9424 70.4637 70.6325C68.1731 68.3227 67.5092 65.4584 66.8629 62.6971C66.2507 60.0645 65.6608 57.5855 63.7481 55.6472C61.8354 53.7088 59.3799 53.1197 56.7916 52.4859C54.0666 51.8346 51.244 51.1471 48.9593 48.8334C46.6746 46.5196 46 43.6573 45.3585 40.896C44.7346 38.2634 44.1567 35.7854 42.2342 33.848C40.3118 31.9106 37.872 31.3127 35.2836 30.6848C32.5498 30.0335 29.7359 29.3421 27.4454 27.0323C25.1548 24.7224 24.4909 21.8562 23.8446 19.0949C23.2266 16.4623 22.6428 13.9852 20.7301 12.0469C18.8174 10.1085 16.3677 9.51161 13.7735 8.88564C11.0485 8.23237 8.22567 7.54102 5.941 5.23117C5.84336 5.13237 5.74803 5.03173 5.65495 4.92838C6.10443 4.50423 6.57539 4.10288 7.06585 3.72673C7.12346 3.78816 7.182 3.851 7.24058 3.91145C9.15228 5.85372 11.6088 6.44672 14.1971 7.07269C16.9221 7.72986 19.7447 8.41526 22.0294 10.731C24.3141 13.0467 24.9839 15.8983 25.6302 18.6664C26.2541 21.2922 26.8323 23.7761 28.745 25.7145C30.6576 27.6528 33.1132 28.242 35.7015 28.8719C38.4265 29.529 41.2491 30.2146 43.5338 32.5244C45.8185 34.8343 46.4931 37.7004 47.1346 40.4675C47.7585 43.0913 48.3423 45.5713 50.2589 47.5155C52.1755 49.4598 54.6212 50.043 57.2154 50.6768C59.9404 51.33 62.7572 52.0157 65.0477 54.3255C67.3382 56.6354 68.0022 59.4996 68.6485 62.2667C69.2607 64.8905 69.8503 67.3724 71.763 69.3166C73.6757 71.2608 76.1312 71.8442 78.7196 72.4722C81.4446 73.1293 84.2674 73.8167 86.5521 76.1304C88.8368 78.4442 89.5065 81.2977 90.1529 84.0678C90.7651 86.6916 91.3547 89.1726 93.2674 91.1158C95.1801 93.0591 97.6356 93.6434 100.224 94.2732C102.949 94.9304 105.772 95.6158 108.056 97.9315C110.341 100.247 111.017 103.099 111.663 105.867C112.281 108.491 112.865 110.979 114.778 112.917C115.598 113.734 116.568 114.386 117.634 114.838C118.703 114.387 119.675 113.735 120.497 112.917C122.409 110.973 122.993 108.491 123.621 105.867C124.263 103.1 124.932 100.241 127.222 97.9315C129.512 95.6217 132.329 94.9304 135.055 94.2732C137.642 93.6434 140.098 93.0542 142.011 91.1158C143.924 89.1775 144.513 86.6926 145.126 84.0678C145.773 81.3007 146.443 78.4413 148.726 76.1304C151.01 73.8196 153.834 73.1293 156.559 72.4722C159.147 71.8433 161.603 71.253 163.515 69.3166C165.428 67.3802 166.018 64.8905 166.63 62.2667C167.277 59.4996 167.952 56.6412 170.231 54.3255C172.509 52.0098 175.337 51.33 178.063 50.6768C180.656 50.043 183.107 49.4539 185.019 47.5155C186.932 45.5772 187.516 43.0913 188.144 40.4675C188.785 37.7004 189.455 34.8401 191.745 32.5244C194.034 30.2087 196.851 29.529 199.577 28.8719C202.164 28.242 204.621 27.6528 206.534 25.7145C208.446 23.7761 209.024 21.2922 209.648 18.6664C210.295 15.8993 210.959 13.0408 213.249 10.731C215.538 8.42111 218.355 7.72986 221.081 7.07269C223.668 6.44379 226.125 5.85372 228.038 3.91145C228.673 3.25865 229.204 2.51071 229.613 1.69669C230.17 1.95706 230.713 2.24798 231.24 2.56507C230.748 3.54684 230.106 4.44464 229.337 5.22927C227.048 7.53912 224.231 8.23046 221.505 8.88373C218.918 9.51263 216.467 10.1066 214.548 12.045C212.63 13.9833 212.052 16.4652 211.434 19.0949C210.786 21.8562 210.117 24.7205 207.833 27.0304C205.549 29.3402 202.721 30.0316 200.001 30.6829C197.407 31.3128 194.963 31.9018 193.039 33.8461C191.132 35.7825 190.549 38.2635 189.925 40.8941C189.283 43.6554 188.613 46.5206 186.324 48.8315C184.034 51.1423 181.216 51.8327 178.491 52.484C175.904 53.1178 173.448 53.7069 171.535 55.6452C169.622 57.5836 169.033 60.0655 168.42 62.6952C167.773 65.4565 167.103 68.3208 164.82 70.6306C162.536 72.9405 159.712 73.6201 156.987 74.2851C154.399 74.914 151.943 75.508 150.031 77.4463C148.118 79.3847 147.529 81.8666 146.916 84.4963C146.269 87.2576 145.599 90.1219 143.315 92.4317C141.032 94.7416 138.203 95.433 135.483 96.0843C132.89 96.7142 130.445 97.3091 128.527 99.2474C126.608 101.186 126.03 103.666 125.402 106.297C124.761 109.059 124.091 111.923 121.801 114.233C120.661 115.365 119.288 116.237 117.777 116.788L117.64 116.423ZM117.64 106.01L117.045 106.326C116.902 106.044 116.764 105.758 116.638 105.473L116.61 105.456C116.616 105.444 116.622 105.438 116.622 105.433C116.05 103.968 115.6 102.46 115.276 100.921C114.664 98.2888 114.075 95.8042 112.162 93.8619C110.249 91.9196 107.805 91.3266 105.211 90.7045C102.492 90.0415 99.6751 89.3619 97.4002 87.0462C95.1253 84.7305 94.4516 81.879 93.7994 79.105C93.1873 76.4725 92.6025 73.9879 90.6849 72.0437C88.7674 70.0995 86.3283 69.5083 83.7341 68.8882C81.0091 68.2232 78.1982 67.5435 75.9233 65.2337C73.6484 62.9238 72.9747 60.0607 72.3225 57.2887C71.7103 54.6561 71.1255 52.1714 69.208 50.2331C67.2904 48.2947 64.8516 47.6978 62.2574 47.0718C59.5324 46.4088 56.7214 45.7272 54.4465 43.4174C52.1716 41.1075 51.4979 38.2425 50.8457 35.4705C50.2336 32.8467 49.6495 30.3532 47.731 28.4148C45.8124 26.4765 43.3687 25.8796 40.7804 25.2536C38.0554 24.5906 35.2445 23.9109 32.9696 21.601C30.6946 19.2912 30.021 16.4281 29.3688 13.6542C28.7507 11.0303 28.1611 8.53682 26.2543 6.60041C24.3474 4.664 21.8918 4.06519 19.3034 3.43727C17.4594 3.06833 15.6703 2.46558 13.9795 1.64336L14.6698 0.321739C14.8651 0.283388 15.0632 0.250709 15.2643 0.220808C16.6989 0.848298 18.1974 1.31786 19.7332 1.62432C22.4582 2.28734 25.2692 2.9688 27.5441 5.2845C29.819 7.6002 30.4926 10.4517 31.1448 13.2257C31.757 15.8583 32.3418 18.3428 34.2691 20.287C36.1965 22.2312 38.6257 22.8223 41.214 23.4483C43.939 24.1074 46.7499 24.7853 49.0248 27.0951C51.2998 29.405 51.9734 32.2807 52.6256 35.042C53.2437 37.6746 53.8226 40.1593 55.7499 42.0976C57.6773 44.036 60.1065 44.6329 62.6948 45.2589C65.4198 45.9219 68.2366 46.6035 70.5154 48.9133C72.7942 51.2232 73.464 54.0882 74.1162 56.8602C74.7284 59.484 75.318 61.9775 77.2307 63.9159C79.1434 65.8542 81.5872 66.4511 84.1756 67.0771C86.9094 67.7401 89.7174 68.4179 91.9962 70.7278C94.275 73.0376 94.9448 75.9085 95.597 78.6747C96.2092 81.3004 96.7988 83.7939 98.7115 85.7303C100.624 87.6667 103.068 88.2655 105.662 88.8934C108.387 89.5565 111.198 90.2361 113.473 92.546C115.748 94.8558 116.422 97.7267 117.074 100.493C117.257 101.273 117.434 102.043 117.652 102.786C117.864 102.043 118.042 101.278 118.224 100.493C118.876 97.7257 119.546 94.8666 121.825 92.546C124.104 90.2254 126.915 89.5565 129.636 88.8934C132.229 88.2684 134.674 87.6804 136.586 85.7303C138.499 83.7802 139.089 81.3004 139.701 78.6747C140.354 75.9075 141.024 73.0483 143.302 70.7278C145.579 68.4072 148.397 67.7401 151.112 67.0771C153.706 66.4541 156.151 65.864 158.063 63.9159C159.976 61.9678 160.566 59.484 161.178 56.8602C161.83 54.0872 162.5 51.2329 164.779 48.9133C167.057 46.5937 169.874 45.9219 172.599 45.2589C175.187 44.6358 177.631 44.0477 179.544 42.0976C181.457 40.1476 182.046 37.6717 182.659 35.042C183.317 32.2807 183.981 29.4157 186.265 27.0951C188.55 24.7745 191.355 24.1074 194.076 23.4483C196.664 22.8252 199.108 22.2312 201.021 20.287C202.934 18.3428 203.523 15.8553 204.145 13.2257C204.798 10.4527 205.467 7.6002 207.746 5.2845C210.025 2.9688 212.836 2.28734 215.557 1.62432C217.253 1.30046 218.899 0.754252 220.452 -9.75337e-05L221.311 1.64336C219.62 2.46651 217.831 3.06931 215.986 3.43727C213.399 4.06226 210.954 4.65034 209.042 6.60041C207.129 8.55047 206.534 11.0303 205.917 13.6542C205.265 16.4291 204.595 19.2795 202.317 21.601C200.038 23.9226 197.227 24.5906 194.506 25.2536C191.917 25.8766 189.468 26.4726 187.555 28.4148C185.642 30.3571 185.054 32.8467 184.44 35.4705C183.787 38.2435 183.117 41.0968 180.84 43.4174C178.562 45.7379 175.75 46.4088 173.029 47.0718C170.441 47.6949 167.991 48.2947 166.078 50.2331C164.165 52.1714 163.577 54.659 162.964 57.2887C162.311 60.0617 161.642 62.9131 159.363 65.2337C157.084 67.5543 154.273 68.2232 151.552 68.8882C148.959 69.5112 146.514 70.1053 144.601 72.0437C142.688 73.982 142.1 76.4754 141.487 79.105C140.834 81.878 140.165 84.7305 137.886 87.0462C135.607 89.3619 132.796 90.0415 130.075 90.7045C127.482 91.3236 125.037 91.9235 123.124 93.8619C121.212 95.8003 120.623 98.2917 120.01 100.921C119.687 102.46 119.237 103.969 118.664 105.433C118.664 105.439 118.67 105.445 118.676 105.456L118.648 105.473C118.522 105.758 118.384 106.044 118.241 106.326L117.64 106.01ZM117.64 87.6118L117.205 88.0917C115.333 86.3776 113.006 85.8099 110.546 85.2161C107.821 84.559 104.998 83.8736 102.719 81.5578C100.441 79.2421 99.765 76.3837 99.1186 73.6205C98.4947 70.9967 97.9168 68.5149 96.0041 66.5667C94.0914 64.6186 91.6359 64.0315 89.0476 63.4036C86.3226 62.7523 83.4998 62.0609 81.221 59.751C78.9422 57.4412 78.2665 54.5769 77.6202 51.8156C76.9963 49.183 76.4184 46.7043 74.5057 44.7542C72.593 42.8042 70.1375 42.2188 67.5491 41.5987C64.8241 40.9396 62.0016 40.2541 59.7228 37.9442C57.444 35.6344 56.7681 32.7702 56.1218 30.0031C55.4979 27.3793 54.9199 24.8975 53.0073 22.9474C51.0946 20.9974 48.639 20.4141 46.0507 19.7881C43.3257 19.1368 40.5032 18.4493 38.2244 16.1336C35.9456 13.8179 35.2699 10.9644 34.6236 8.19626C34.0378 5.69823 33.484 3.33701 31.792 1.4396L33.1493 0.192243C35.1528 2.43481 35.7942 5.15075 36.4063 7.76968C37.0185 10.3886 37.6082 12.8792 39.5209 14.8234C41.4336 16.7676 43.8891 17.3587 46.4774 17.9847C49.2024 18.6418 52.0252 19.3293 54.304 21.6391C56.5828 23.949 57.2584 26.8133 57.9048 29.5746C58.5228 32.2072 59.1066 34.686 61.0193 36.6302C62.932 38.5744 65.3875 39.1655 67.9758 39.7915C70.7008 40.4486 73.5235 41.134 75.7964 43.4497C78.0694 45.7654 78.7569 48.617 79.4032 51.3871C80.0212 54.0109 80.605 56.4927 82.5177 58.4408C84.4304 60.389 86.8859 60.9761 89.4743 61.604C92.1993 62.267 95.0161 62.9467 97.2949 65.2565C99.5737 67.5664 100.254 70.4307 100.901 73.192C101.514 75.8246 102.103 78.3033 104.016 80.2534C105.929 82.2034 108.384 82.7888 110.973 83.4089C113.352 83.822 115.621 84.7212 117.636 86.0502C119.649 84.7202 121.917 83.8209 124.295 83.4089C126.888 82.7917 129.339 82.1917 131.252 80.2534C133.164 78.315 133.754 75.8217 134.366 73.192C135.013 70.4307 135.689 67.5664 137.967 65.2565C140.245 62.9467 143.068 62.267 145.793 61.604C148.386 60.979 150.837 60.3792 152.75 58.4408C154.662 56.5025 155.247 54.0109 155.865 51.3871C156.512 48.618 157.187 45.7606 159.465 43.4497C161.744 41.1389 164.567 40.4486 167.292 39.7915C169.879 39.1684 172.336 38.5725 174.248 36.6302C176.161 34.688 176.745 32.2042 177.363 29.5746C178.01 26.8133 178.685 23.949 180.964 21.6391C183.243 19.3293 186.065 18.6418 188.79 17.9847C191.378 17.3616 193.834 16.7618 195.747 14.8234C197.659 12.8851 198.243 10.3993 198.861 7.76968C199.479 5.14002 200.115 2.43969 202.118 0.192243L203.475 1.4396C201.786 3.33603 201.23 5.69725 200.644 8.19626C199.997 10.9634 199.327 13.8248 197.043 16.1336C194.76 18.4425 191.942 19.1368 189.217 19.7881C186.629 20.4111 184.185 21.0091 182.26 22.9474C180.336 24.8858 179.77 27.3793 179.146 30.0031C178.498 32.7702 177.834 35.6285 175.545 37.9442C173.255 40.2599 170.443 40.9396 167.718 41.5987C165.131 42.2217 162.686 42.8159 160.762 44.7542C158.837 46.6926 158.271 49.1859 157.647 51.8156C157 54.5769 156.325 57.4412 154.047 59.751C151.768 62.0609 148.945 62.7523 146.22 63.4036C143.633 64.0286 141.188 64.6284 139.263 66.5667C137.339 68.5051 136.773 70.9967 136.149 73.6205C135.502 76.3837 134.827 79.247 132.548 81.5578C130.269 83.8687 127.447 84.559 124.722 85.2161C122.26 85.8099 119.938 86.3776 118.063 88.0917L117.64 87.6118ZM117.634 79.9163L117.588 80.1048C117.039 79.9625 116.477 79.8254 115.922 79.6821C113.197 79.0307 110.374 78.349 108.089 76.0333C105.805 73.7176 105.135 70.8658 104.483 68.1036C103.865 65.471 103.275 62.992 101.358 61.0536C99.4417 59.1153 96.996 58.5182 94.4018 57.8981C91.6768 57.2468 88.86 56.5612 86.5695 54.2455C84.279 51.9298 83.6152 49.0829 82.963 46.3158C82.3508 43.69 81.7609 41.2081 79.8482 39.2659C77.9355 37.3236 75.48 36.7382 72.8917 36.1142C70.1667 35.4628 67.3442 34.785 65.0537 32.4635C62.7631 30.1419 62.0991 27.299 61.4469 24.5318C60.823 21.908 60.2451 19.428 58.3324 17.4838C56.4197 15.5396 53.9641 14.9561 51.3709 14.334C48.6683 13.669 45.8457 12.9894 43.5679 10.6795C41.29 8.36969 40.6135 5.51693 39.9554 2.7498C39.8295 2.18428 39.6975 1.62499 39.554 1.06825L41.3232 0.594062C41.4716 1.16543 41.6095 1.75092 41.7413 2.32132C42.3652 4.94512 42.9431 7.43098 44.8558 9.36934C46.7685 11.3077 49.224 11.8971 51.8123 12.5192C54.5373 13.1763 57.36 13.8637 59.6446 16.1774C61.9293 18.4912 62.6038 21.345 63.2511 24.1034C63.8692 26.7359 64.4532 29.214 66.3659 31.1514C68.2786 33.0888 70.7341 33.6869 73.3224 34.3031C76.0474 34.9603 78.8642 35.6401 81.1547 37.95C83.4453 40.2598 84.1092 43.1174 84.7555 45.8797C85.3677 48.5123 85.9574 50.9913 87.87 52.9296C89.7827 54.868 92.2383 55.4571 94.8266 56.0909C97.5516 56.7441 100.374 57.4296 102.659 59.7453C104.944 62.061 105.619 64.9079 106.26 67.6751C106.872 70.2989 107.462 72.78 109.374 74.7193C111.287 76.6586 113.743 77.2546 116.342 77.8805C116.771 77.9888 117.201 78.0922 117.635 78.2005C118.065 78.0922 118.494 77.9888 118.923 77.8805C121.522 77.2516 123.967 76.6635 125.89 74.7193C127.814 72.7751 128.393 70.2999 129.005 67.6751C129.646 64.9079 130.316 62.0552 132.606 59.7453C134.895 57.4355 137.712 56.7441 140.438 56.0909C143.025 55.4571 145.476 54.868 147.395 52.9296C149.313 50.9913 149.897 48.5094 150.509 45.8797C151.156 43.1184 151.826 40.2657 154.11 37.95C156.394 35.6343 159.216 34.9603 161.942 34.3031C164.535 33.684 166.98 33.0898 168.899 31.1514C170.817 29.213 171.395 26.734 172.013 24.1034C172.661 21.3421 173.331 18.4873 175.614 16.1774C177.898 13.8676 180.727 13.1763 183.452 12.5192C186.041 11.8961 188.496 11.3077 190.409 9.36934C192.322 7.43098 192.899 4.94512 193.523 2.32132C193.655 1.74995 193.792 1.16446 193.947 0.594062L195.716 1.06825C195.573 1.62402 195.436 2.18428 195.309 2.7498C194.651 5.51693 193.987 8.36969 191.697 10.6795C189.406 12.9894 186.595 13.669 183.899 14.334C181.299 14.9571 178.855 15.5455 176.931 17.4838C175.008 19.4222 174.441 21.908 173.817 24.5318C173.164 27.299 172.494 30.1536 170.204 32.4635C167.915 34.7733 165.098 35.4628 162.372 36.1142C159.784 36.7391 157.34 37.3275 155.415 39.2659C153.508 41.2081 152.914 43.69 152.301 46.3158C151.648 49.0829 150.979 51.9357 148.694 54.2455C146.41 56.5554 143.588 57.2468 140.862 57.8981C138.269 58.5211 135.824 59.1114 133.905 61.0536C131.987 62.9959 131.404 65.4739 130.781 68.1036C130.129 70.8648 129.459 73.7176 127.174 76.0333C124.89 78.349 122.068 79.0307 119.342 79.6821C118.786 79.8244 118.226 79.9556 117.676 80.1048L117.634 79.9163ZM117.64 72.9463L117.514 73.2663C116.003 72.7174 114.631 71.8429 113.496 70.7049C111.217 68.3834 110.535 65.5252 109.895 62.758C109.277 60.1342 108.687 57.6426 106.77 55.7043C104.854 53.7659 102.408 53.169 99.8137 52.543C97.0887 51.88 94.2721 51.1984 91.9933 48.8905C89.7145 46.5826 89.0328 43.7088 88.3923 40.9417C87.7743 38.3179 87.1846 35.8244 85.268 33.888C83.3514 31.9515 80.9115 31.3527 78.3115 30.7248C75.5865 30.0618 72.7697 29.3822 70.4909 27.0665C68.212 24.7508 67.5315 21.8809 66.8901 19.1197C66.272 16.4871 65.6824 14.0024 63.7658 12.064C61.8492 10.1256 59.4093 9.53065 56.8092 8.90468C54.0959 8.23483 51.2792 7.55272 48.9984 5.23117C47.8784 4.0641 47.0196 2.67391 46.4793 1.15013L48.1968 0.485514C48.6405 1.76601 49.3575 2.93661 50.298 3.91336C52.2097 5.86342 54.6662 6.44862 57.2545 7.07459C59.9795 7.73761 62.802 8.41703 65.0808 10.7386C67.3597 13.0601 68.0353 15.9174 68.6816 18.6836C69.2938 21.3093 69.8837 23.7969 71.7964 25.7392C73.7091 27.6815 76.1646 28.2744 78.7529 28.9023C81.4779 29.5654 84.3005 30.2392 86.5793 32.5549C88.8581 34.8706 89.5337 37.7356 90.1801 40.5018C90.7922 43.1256 91.3819 45.6132 93.2946 47.5574C95.2073 49.5017 97.6511 50.0927 100.251 50.7187C102.976 51.3778 105.799 52.0576 108.078 54.3674C110.357 56.7075 111.026 59.5643 111.668 62.3314C112.28 64.964 112.87 67.4468 114.782 69.3852C115.598 70.2022 116.564 70.8563 117.627 71.3086C118.693 70.8578 119.661 70.2036 120.478 69.3852C122.39 67.4468 122.981 64.9611 123.593 62.3314C124.235 59.5643 124.904 56.7055 127.183 54.3674C129.462 52.0576 132.284 51.3779 135.009 50.713C137.609 50.0958 140.053 49.5017 141.966 47.5574C143.879 45.6132 144.468 43.1256 145.081 40.5018C145.728 37.7347 146.403 34.8706 148.681 32.5549C150.96 30.2392 153.783 29.5654 156.508 28.9023C159.101 28.2774 161.552 27.6893 163.464 25.7392C165.377 23.7891 165.967 21.3093 166.579 18.6836C167.226 15.9164 167.902 13.0592 170.18 10.7386C172.458 8.418 175.281 7.73761 178.006 7.07459C180.594 6.45155 183.05 5.86147 184.963 3.91336C185.903 2.93661 186.62 1.76601 187.064 0.485514L188.781 1.15013C188.241 2.67431 187.383 4.06579 186.262 5.23308C183.973 7.55463 181.161 8.23386 178.452 8.90468C175.853 9.52773 173.408 10.1159 171.495 12.0659C169.582 14.016 168.993 16.4919 168.371 19.1216C167.729 21.8829 167.049 24.7479 164.77 27.0684C162.491 29.389 159.674 30.0637 156.949 30.7267C154.35 31.3517 151.905 31.9398 149.993 33.8899C148.08 35.8399 147.491 38.3179 146.868 40.9417C146.227 43.7088 145.546 46.5689 143.268 48.8905C140.989 51.212 138.172 51.88 135.447 52.543C132.854 53.1661 130.403 53.7542 128.49 55.7043C126.578 57.6543 125.989 60.1361 125.376 62.7599C124.729 65.5271 124.047 68.3862 121.769 70.7068C120.634 71.8448 119.262 72.7193 117.75 73.2682L117.64 72.9463ZM117.64 62.3467L117.028 62.6723C116.885 62.3798 116.748 62.0888 116.622 61.7963V61.7887C116.044 60.3161 115.592 58.7992 115.27 57.2506C114.658 54.6268 114.069 52.1449 112.146 50.2007C110.224 48.2565 107.772 47.6731 105.179 47.0452C102.445 46.388 99.6195 45.7006 97.3299 43.3907C95.0404 41.0809 94.3706 38.2167 93.7174 35.4495C93.0994 32.8257 92.5156 30.3439 90.5931 28.3939C88.6707 26.4438 86.219 25.8664 83.6199 25.2326C80.8861 24.5813 78.0664 23.8899 75.7709 21.5801C73.4755 19.2702 72.8165 16.406 72.1585 13.6427C71.5404 11.0189 70.9566 8.53138 69.0342 6.58327C67.1117 4.63516 64.66 4.05571 62.061 3.42584C60.2141 3.0634 58.4224 2.46229 56.731 1.63765L57.5951 -0.00390625C59.152 0.750405 60.8017 1.29659 62.5015 1.62051C65.2353 2.27768 68.0548 2.96308 70.3395 5.27878C72.6242 7.59448 73.3049 10.4461 73.9522 13.2142C74.5702 15.8381 75.154 18.3198 77.0765 20.2699C78.9989 22.22 81.4504 22.8052 84.0495 23.4311C86.7833 24.0844 89.6031 24.7757 91.8877 27.0856C94.1724 29.3954 94.8529 32.2598 95.5002 35.021C96.1241 37.6536 96.7023 40.1323 98.6247 42.0824C100.547 44.0325 103.005 44.6178 105.598 45.2379C108.332 45.8951 111.151 46.5825 113.442 48.8924C115.732 51.2022 116.407 54.0664 117.048 56.8336C117.238 57.6331 117.421 58.4164 117.644 59.174C117.862 58.4184 118.044 57.635 118.23 56.8336C118.877 54.0664 119.552 51.2071 121.837 48.8924C124.121 46.5777 126.944 45.8951 129.68 45.2379C132.273 44.6149 134.729 44.0208 136.647 42.0824C138.564 40.144 139.149 37.6507 139.771 35.021C140.418 32.2598 141.093 29.3954 143.378 27.0856C145.663 24.7757 148.491 24.0844 151.221 23.4311C153.82 22.8081 156.271 22.2083 158.194 20.2699C160.118 18.3315 160.696 15.8381 161.318 13.2142C161.966 10.4471 162.64 7.58863 164.931 5.27878C167.221 2.96893 170.037 2.27768 172.769 1.62051C174.471 1.2966 176.122 0.750428 177.681 -0.00390625L178.54 1.63765C176.849 2.46229 175.057 3.0634 173.21 3.42584C170.611 4.05571 168.161 4.64491 166.237 6.58327C164.314 8.52163 163.736 11.0189 163.113 13.6427C162.461 16.406 161.791 19.2693 159.506 21.5801C157.222 23.8909 154.393 24.5813 151.657 25.2326C149.058 25.8664 146.608 26.4575 144.684 28.3939C142.761 30.3303 142.183 32.8257 141.56 35.4495C140.908 38.2167 140.238 41.075 137.947 43.3907C135.657 45.7064 132.835 46.3881 130.098 47.0395C127.505 47.6732 125.049 48.2623 123.131 50.2007C121.214 52.139 120.618 54.6268 120.007 57.2506C119.685 58.7992 119.233 60.3161 118.656 61.7887V61.7963C118.53 62.0888 118.392 62.3798 118.249 62.6723L117.64 62.3467ZM117.64 43.9544L117.24 44.4C115.373 42.6898 113.049 42.1317 110.587 41.5321C107.862 40.8788 105.045 40.1989 102.766 37.889C100.488 35.5792 99.8178 32.7214 99.1656 29.965C98.5534 27.3412 97.9637 24.8658 96.0511 22.9265C94.1384 20.9871 91.6944 20.3909 89.1003 19.7767C86.3752 19.1195 83.5643 18.4378 81.2894 16.1279C79.0145 13.8181 78.3408 10.9653 77.6886 8.19816C77.1028 5.70013 76.5493 3.34923 74.8573 1.45864L76.2143 0.211286C78.2178 2.45386 78.8504 5.1566 79.4606 7.76968C80.0787 10.4023 80.6576 12.8689 82.5849 14.8082C84.5123 16.7475 86.9415 17.3436 89.5298 17.9637C92.2548 18.6209 95.0716 19.2969 97.3406 21.6068C99.6097 23.9166 100.289 26.7742 100.947 29.5365C101.56 32.1691 102.138 34.6355 104.062 36.5807C105.986 38.5259 108.418 39.1085 111.007 39.7305C113.376 40.1423 115.635 41.0331 117.646 42.349C119.653 41.0327 121.91 40.1418 124.276 39.7305C126.863 39.1075 129.308 38.5171 131.22 36.5807C133.133 34.6443 133.723 32.1671 134.335 29.5365C134.993 26.7752 135.664 23.9224 137.941 21.6068C140.219 19.291 143.031 18.6209 145.752 17.9637C148.34 17.3407 150.785 16.7524 152.703 14.8082C154.622 12.864 155.2 10.4003 155.818 7.76968C156.43 5.1566 157.059 2.45873 159.064 0.211286L160.421 1.45864C158.732 3.34923 158.175 5.70013 157.59 8.19816C156.937 10.9653 156.267 13.8142 153.989 16.1279C151.711 18.4417 148.899 19.1195 146.178 19.7767C143.585 20.3939 141.14 20.9881 139.227 22.9265C137.315 24.8648 136.726 27.3402 136.113 29.965C135.461 32.7204 134.791 35.5733 132.512 37.889C130.233 40.2047 127.416 40.8788 124.691 41.5321C122.23 42.1317 119.907 42.6898 118.038 44.4L117.64 43.9544ZM117.64 36.415L117.606 36.5407C117.056 36.3925 116.495 36.2516 115.94 36.1142C113.215 35.4628 110.393 34.7733 108.114 32.4635C105.835 30.1536 105.159 27.2873 104.513 24.5318C103.901 21.908 103.311 19.428 101.398 17.4838C99.4857 15.5396 97.0302 14.9564 94.4418 14.3226C91.7168 13.6693 88.8943 12.9837 86.6155 10.6738C84.3367 8.36398 83.6611 5.49952 83.0147 2.74408C82.8888 2.18441 82.7628 1.61928 82.6085 1.06253L84.3777 0.582636C84.532 1.15985 84.6636 1.73745 84.8013 2.3137C85.4135 4.93751 86.0034 7.41942 87.916 9.36363C89.8287 11.3078 92.2843 11.8912 94.8726 12.5192C97.5976 13.1763 100.42 13.8637 102.699 16.1774C104.978 18.4912 105.653 21.345 106.3 24.1034C106.912 26.7359 107.502 29.214 109.414 31.1514C111.327 33.0888 113.782 33.6866 116.371 34.3145C116.794 34.4169 117.218 34.5205 117.64 34.6287C118.058 34.5205 118.482 34.4169 118.909 34.3145C121.497 33.6847 123.953 33.0898 125.866 31.1514C127.779 29.213 128.368 26.734 128.98 24.1034C129.628 21.3479 130.302 18.4873 132.581 16.1774C134.86 13.8676 137.683 13.1763 140.408 12.5192C142.995 11.8903 145.452 11.302 147.364 9.36363C149.277 7.42527 149.867 4.93751 150.479 2.3137C150.617 1.73648 150.753 1.15888 150.903 0.582636L152.672 1.06253C152.522 1.6183 152.392 2.18344 152.266 2.74408C151.618 5.49952 150.943 8.35813 148.665 10.6738C146.387 12.9895 143.563 13.6693 140.838 14.3226C138.251 14.9564 135.794 15.5455 133.882 17.4838C131.969 19.4222 131.38 21.908 130.767 24.5318C130.12 27.2873 129.445 30.1536 127.166 32.4635C124.888 34.7733 122.065 35.4628 119.34 36.1142C118.784 36.2516 118.224 36.3915 117.674 36.5407L117.64 36.415ZM117.64 29.268L117.514 29.5879C116.005 29.0361 114.634 28.1641 113.496 27.0323C111.217 24.7224 110.547 21.8562 109.895 19.0949C109.277 16.4623 108.698 13.9852 106.77 12.0469C104.843 10.1085 102.414 9.51161 99.8256 8.88564C97.1006 8.23237 94.2837 7.54102 91.999 5.23117C90.8834 4.06285 90.029 2.67089 89.4919 1.14823L91.2034 0.485514C91.6499 1.76469 92.3663 2.93282 93.3044 3.91145C95.2161 5.85372 97.661 6.44672 100.255 7.07269C102.98 7.72986 105.791 8.41526 108.066 10.731C110.341 13.0467 111.015 15.8983 111.667 18.6664C112.291 21.2922 112.869 23.778 114.781 25.7164C115.596 26.534 116.562 27.1847 117.626 27.6321C118.693 27.1862 119.662 26.5353 120.477 25.7164C122.389 23.778 122.968 21.2922 123.592 18.6664C124.244 15.8993 124.914 13.0408 127.193 10.731C129.472 8.42111 132.283 7.72986 135.004 7.07269C137.597 6.44379 140.042 5.85372 141.954 3.91145C142.893 2.93299 143.609 1.76481 144.056 0.485514L145.773 1.14823C145.234 2.67159 144.377 4.0629 143.26 5.23117C140.975 7.54102 138.158 8.23237 135.433 8.88564C132.846 9.51453 130.401 10.1085 128.488 12.0469C126.576 13.9852 125.987 16.4671 125.374 19.0968C124.716 21.8581 124.045 24.7224 121.767 27.0323C120.628 28.1641 119.257 29.0361 117.749 29.5879L117.64 29.268ZM117.64 18.7464L117.054 19.0625C116.905 18.7804 116.768 18.4942 116.642 18.2037L116.602 18.1808L116.62 18.1465C116.039 16.6914 115.588 15.1871 115.275 13.6522C114.645 11.0284 114.067 8.53492 112.137 6.5985C110.208 4.66209 107.757 4.06328 105.147 3.43536C103.291 3.06764 101.49 2.4649 99.7875 1.64146L100.657 -9.75337e-05C102.216 0.754247 103.868 1.30042 105.569 1.62432C108.312 2.28734 111.141 2.96689 113.436 5.28259C115.731 7.59829 116.407 10.4499 117.06 13.2181C117.244 13.9981 117.426 14.7566 117.638 15.4938C117.844 14.7566 118.029 13.9971 118.21 13.2181C118.862 10.4509 119.538 7.59829 121.835 5.28259C124.131 2.96689 126.958 2.28734 129.701 1.62432C131.404 1.29952 133.058 0.753393 134.619 -9.75337e-05L135.483 1.64146C133.78 2.4649 131.979 3.06764 130.124 3.43536C127.519 4.06036 125.062 4.66014 123.133 6.5985C121.204 8.53687 120.626 11.0284 119.995 13.6522C119.681 15.1872 119.231 16.6915 118.65 18.1465L118.667 18.1808L118.627 18.2037C118.502 18.4949 118.364 18.7811 118.215 19.0625L117.64 18.7464Z" fill="url(#paint0_linear_5084_44435)"/>
</g>
<defs>
<linearGradient id="paint0_linear_5084_44435" x1="115.439" y1="4.87132" x2="115.439" y2="125.002" gradientUnits="userSpaceOnUse">
<stop stop-color="#26FFFF"/>
<stop offset="0.573" stop-color="#DDFFFF" stop-opacity="0.157"/>
<stop offset="1" stop-color="white" stop-opacity="0"/>
</linearGradient>
<clipPath id="clip0_5084_44435">
<rect width="240" height="125" fill="white"/>
</clipPath>
</defs>
</svg>
