<svg width="24" height="24" viewBox="0 0 24 24" fill="none" xmlns="http://www.w3.org/2000/svg">
<path d="M18.1579 19.3H5.84211L3 22V6.7C3 5.215 4.27895 4 5.84211 4H18.1579C19.7211 4 21 5.215 21 6.7V16.6C21 18.085 19.7211 19.3 18.1579 19.3Z" fill="white" stroke="#00BABA" stroke-width="1.5"/>
<path d="M12.8996 10.3008H11.0996V15.2508H12.8996V10.3008Z" fill="#00BABA"/>
<path d="M11.9996 8.95039C12.4967 8.95039 12.8996 8.54745 12.8996 8.05039C12.8996 7.55333 12.4967 7.15039 11.9996 7.15039C11.5026 7.15039 11.0996 7.55333 11.0996 8.05039C11.0996 8.54745 11.5026 8.95039 11.9996 8.95039Z" fill="#00BABA"/>
</svg>
