<svg width="24" height="24" viewBox="0 0 24 24" fill="none" xmlns="http://www.w3.org/2000/svg">
<path d="M18.1739 19.5481V4.92308C18.1732 4.67848 18.0768 4.4441 17.9057 4.27115C17.7346 4.09819 17.5028 4.00071 17.2609 4H6.91304C6.67111 4.00071 6.43928 4.09819 6.2682 4.27115C6.09712 4.4441 6.0007 4.67848 6 4.92308V18.4615C6.0012 18.8692 6.16192 19.2598 6.44704 19.5481C6.73216 19.8363 7.11852 19.9988 7.52174 20H18.5" stroke="#00BABA" stroke-linejoin="round"/>
<path d="M13.6667 7H16H13.6667ZM13.6667 9.5H16H13.6667ZM9 12H16H9ZM9 14.5H16H9ZM9 17H16H9Z" fill="#00BABA"/>
<path d="M9 17H16M13.6667 7H16H13.6667ZM13.6667 9.5H16H13.6667ZM9 12H16H9ZM9 14.5H16H9Z" stroke="#00BABA" stroke-linecap="round" stroke-linejoin="round"/>
<path d="M10.5 10H8.5C8.36739 10 8.24021 9.94732 8.14645 9.85355C8.05268 9.75979 8 9.63261 8 9.5V7.5C8 7.36739 8.05268 7.24021 8.14645 7.14645C8.24021 7.05268 8.36739 7 8.5 7H10.5C10.6326 7 10.7598 7.05268 10.8536 7.14645C10.9473 7.24021 11 7.36739 11 7.5V9.5C11 9.63261 10.9473 9.75979 10.8536 9.85355C10.7598 9.94732 10.6326 10 10.5 10Z" fill="#00BABA"/>
</svg>
