<svg width="24" height="24" viewBox="0 0 24 24" fill="none" xmlns="http://www.w3.org/2000/svg">
<path d="M18.2659 14.482C18.7849 13.2489 18.9044 11.884 18.6075 10.5794C18.3107 9.27483 17.6124 8.09608 16.6109 7.2089C15.6094 6.32171 14.355 5.77072 13.0242 5.63337C11.6933 5.49603 10.3528 5.77925 9.19125 6.44321L8.39776 5.05381C9.61169 4.36 10.9863 3.99665 12.3845 4.00002C13.7828 4.00339 15.1556 4.37336 16.3662 5.073C19.9577 7.1463 21.3335 11.5857 19.6593 15.2875L20.7328 15.9066L17.4013 17.6776L17.2693 13.9069L18.2659 14.482ZM6.46764 9.51796C5.94863 10.7511 5.82916 12.116 6.12602 13.4206C6.42289 14.7252 7.12116 15.9039 8.12266 16.7911C9.12416 17.6783 10.3785 18.2293 11.7094 18.3666C13.0403 18.504 14.3807 18.2208 15.5423 17.5568L16.3358 18.9462C15.1219 19.64 13.7472 20.0033 12.349 20C10.9508 19.9966 9.57794 19.6266 8.36737 18.927C4.77589 16.8537 3.40009 12.4143 5.07424 8.71248L4 8.09417L7.33152 6.32322L7.4635 10.0939L6.46684 9.51876L6.46764 9.51796ZM9.56719 13.5998H13.9666C14.0726 13.5998 14.1744 13.5576 14.2494 13.4826C14.3244 13.4076 14.3665 13.3059 14.3665 13.1998C14.3665 13.0938 14.3244 12.992 14.2494 12.917C14.1744 12.842 14.0726 12.7999 13.9666 12.7999H10.767C10.2367 12.7999 9.72803 12.5892 9.35301 12.2142C8.97799 11.8392 8.76731 11.3305 8.76731 10.8002C8.76731 10.2698 8.97799 9.76118 9.35301 9.38617C9.72803 9.01115 10.2367 8.80046 10.767 8.80046H11.5669V8.00058H13.1667V8.80046H15.1664V10.4002H10.767C10.6609 10.4002 10.5592 10.4424 10.4842 10.5174C10.4092 10.5924 10.3671 10.6941 10.3671 10.8002C10.3671 10.9062 10.4092 11.008 10.4842 11.083C10.5592 11.158 10.6609 11.2001 10.767 11.2001H13.9666C14.4969 11.2001 15.0055 11.4108 15.3806 11.7858C15.7556 12.1608 15.9663 12.6695 15.9663 13.1998C15.9663 13.7302 15.7556 14.2388 15.3806 14.6138C15.0055 14.9889 14.4969 15.1995 13.9666 15.1995H13.1667V15.9994H11.5669V15.1995H9.56719V13.5998Z" fill="#00BABA"/>
</svg>
