<svg width="24" height="24" viewBox="0 0 24 24" fill="none" xmlns="http://www.w3.org/2000/svg">
<path d="M3.89983 12.9001H4.79985V19.2C4.79985 20.1927 5.60716 21 6.59988 21H17.4001C18.3928 21 19.2002 20.1927 19.2002 19.2V12.9001H20.1002C20.2782 12.9 20.4521 12.8472 20.6001 12.7483C20.7481 12.6495 20.8634 12.5089 20.9315 12.3445C20.9996 12.18 21.0174 11.9991 20.9827 11.8246C20.948 11.65 20.8623 11.4897 20.7365 11.3638L12.6363 3.26388C12.5528 3.18023 12.4536 3.11386 12.3444 3.06859C12.2352 3.02331 12.1182 3 12 3C11.8818 3 11.7648 3.02331 11.6556 3.06859C11.5464 3.11386 11.4472 3.18023 11.3637 3.26388L3.26351 11.3638C3.13768 11.4897 3.052 11.65 3.01728 11.8246C2.98257 11.9991 3.0004 12.18 3.0685 12.3445C3.1366 12.5089 3.25193 12.6495 3.3999 12.7483C3.54788 12.8472 3.72185 12.9 3.89983 12.9001ZM12 5.17276L17.4001 10.5727V14.7001L17.401 19.2H6.59988V10.5727L12 5.17276Z" fill="#00BABA"/>
<path d="M11.5 17C14.8664 17 15.9555 13.7201 16 13.5811L14.2727 13.0056C14.2655 13.0269 13.5627 15.1464 11.5 15.1464C9.46545 15.1464 8.75455 13.088 8.72636 13L7 13.5811C7.04455 13.7201 8.13364 17 11.5 17Z" fill="#00BABA"/>
</svg>
