<svg width="24" height="24" viewBox="0 0 24 24" fill="none" xmlns="http://www.w3.org/2000/svg">
<path d="M4.0005 15.9791V18.3877C3.99959 18.6113 4.04548 18.8327 4.13524 19.0375C4.22499 19.2424 4.35664 19.4263 4.52173 19.5775C4.68683 19.7286 4.88174 19.8437 5.09398 19.9154C5.30622 19.987 5.53111 20.0136 5.75425 19.9935C8.22976 19.725 10.6077 18.8808 12.6969 17.5286C14.6406 16.2959 16.2886 14.6512 17.5237 12.7113C18.8833 10.6168 19.7294 8.23206 19.9935 5.75036C20.0136 5.52834 19.9871 5.30457 19.9158 5.0933C19.8445 4.88203 19.7299 4.6879 19.5794 4.52325C19.4288 4.35861 19.2455 4.22706 19.0411 4.13699C18.8368 4.04691 18.6159 4.00029 18.3926 4.00008H15.9791C15.5887 3.99624 15.2102 4.13422 14.9142 4.3883C14.6182 4.64237 14.4248 4.99521 14.3702 5.38103C14.2683 6.15185 14.0794 6.9087 13.8071 7.63713C13.6988 7.9245 13.6754 8.23682 13.7396 8.53707C13.8037 8.83732 13.9528 9.11292 14.1691 9.33121L15.1908 10.3509C14.0455 12.3609 12.3779 14.0252 10.3639 15.1682L9.34221 14.1485C9.12349 13.9326 8.84734 13.7839 8.54649 13.7198C8.24564 13.6558 7.93271 13.6792 7.64477 13.7872C6.91489 14.059 6.15654 14.2476 5.38419 14.3492C4.99341 14.4042 4.63651 14.6007 4.38139 14.9012C4.12626 15.2017 3.99071 15.5853 4.0005 15.9791Z" stroke="#00BABA" stroke-width="1.5" stroke-linecap="round" stroke-linejoin="round"/>
</svg>
