<svg width="24" height="24" viewBox="0 0 24 24" fill="none" xmlns="http://www.w3.org/2000/svg">
<path d="M12 3.25C7.16797 3.25 3.25 7.16797 3.25 12C3.25 16.832 7.16797 20.75 12 20.75C16.832 20.75 20.75 16.832 20.75 12C20.75 7.16797 16.832 3.25 12 3.25ZM12 19.2656C7.98828 19.2656 4.73438 16.0117 4.73438 12C4.73438 7.98828 7.98828 4.73438 12 4.73438C16.0117 4.73438 19.2656 7.98828 19.2656 12C19.2656 16.0117 16.0117 19.2656 12 19.2656Z" fill="#00BABA"/>
<path d="M14.1797 8.18555C13.5937 7.67188 12.8203 7.39062 12 7.39062C11.1797 7.39062 10.4062 7.67383 9.82031 8.18555C9.21094 8.71875 8.875 9.43555 8.875 10.2031V10.3516C8.875 10.4375 8.94531 10.5078 9.03125 10.5078H9.96875C10.0547 10.5078 10.125 10.4375 10.125 10.3516V10.2031C10.125 9.3418 10.9668 8.64062 12 8.64062C13.0332 8.64062 13.875 9.3418 13.875 10.2031C13.875 10.8105 13.4453 11.3672 12.7793 11.623C12.3652 11.7813 12.0137 12.0586 11.7617 12.4219C11.5059 12.793 11.373 13.2383 11.373 13.6895V14.1094C11.373 14.1953 11.4434 14.2656 11.5293 14.2656H12.4668C12.5527 14.2656 12.623 14.1953 12.623 14.1094V13.666C12.6241 13.4764 12.6822 13.2915 12.7898 13.1354C12.8975 12.9793 13.0497 12.8593 13.2266 12.791C14.3789 12.3477 15.123 11.332 15.123 10.2031C15.125 9.43555 14.7891 8.71875 14.1797 8.18555ZM11.2188 16.2969C11.2188 16.5041 11.3011 16.7028 11.4476 16.8493C11.5941 16.9958 11.7928 17.0781 12 17.0781C12.2072 17.0781 12.4059 16.9958 12.5524 16.8493C12.6989 16.7028 12.7812 16.5041 12.7812 16.2969C12.7812 16.0897 12.6989 15.891 12.5524 15.7444C12.4059 15.5979 12.2072 15.5156 12 15.5156C11.7928 15.5156 11.5941 15.5979 11.4476 15.7444C11.3011 15.891 11.2188 16.0897 11.2188 16.2969Z" fill="#00BABA"/>
</svg>
