<svg width="329" height="87" viewBox="0 0 329 87" fill="none" xmlns="http://www.w3.org/2000/svg">
<path d="M219.078 2.79105C232.178 2.79105 239.068 23.772 245.73 44.063C252.588 64.9631 259.682 86.563 274.08 86.563C288.136 86.563 295.248 81.1031 302.127 75.8251C308.893 70.6341 315.293 65.725 328.045 65.47V63.681C314.675 63.942 307.745 69.2611 301.036 74.4071C294.086 79.7401 287.526 84.774 274.08 84.774C260.98 84.774 254.092 63.7971 247.434 43.5121C240.57 22.6061 233.478 0.998047 219.078 0.998047C204.678 0.998047 197.592 22.598 190.732 43.498C184.071 63.798 177.185 84.7781 164.084 84.7781C150.784 84.7781 144.235 76.098 137.303 66.909C130.408 57.771 123.284 48.326 109.087 48.326C94.8899 48.326 87.7659 57.771 80.8749 66.907C73.9419 76.098 67.395 84.7781 54.0919 84.7781C40.7399 84.7781 34.1919 77.621 27.2599 70.0461C20.6029 62.7691 13.727 55.497 0.5 55V57C12.936 57.491 19.2559 63.949 25.9349 71.249C32.8279 78.783 39.952 86.569 54.0919 86.569C68.2919 86.569 75.4149 77.1221 82.3039 67.9881C89.2369 58.7951 95.7839 50.1171 109.087 50.1171C122.39 50.1171 128.936 58.7951 135.87 67.9861C142.763 77.1221 149.887 86.569 164.084 86.569C178.484 86.569 185.574 64.961 192.432 44.069C199.093 23.77 205.979 2.79105 219.078 2.79105Z" fill="url(#paint0_linear_3321_48738)"/>
<defs>
<linearGradient id="paint0_linear_3321_48738" x1="10" y1="80.5" x2="147.396" y2="-77.6885" gradientUnits="userSpaceOnUse">
<stop offset="0.0001" stop-color="#14F4C9"/>
<stop offset="1" stop-color="#0094F0"/>
</linearGradient>
</defs>
</svg>
