<svg width="597" height="579" viewBox="0 0 597 579" fill="none" xmlns="http://www.w3.org/2000/svg">
<path d="M129.493 548.957C107.487 526.847 101.617 497.155 96.4479 470.966C93.6769 456.944 91.0543 443.686 86.3612 432.155C75.7509 406.107 61.8204 389.112 48.342 372.673C26.5491 346.111 4.01953 318.634 1.08593 259.356C-1.85966 199.664 12.7674 155.342 45.8126 123.862C78.2133 92.984 124.491 79.3917 161.171 71.008C185.111 65.5221 207.626 53.6346 231.443 41.0369C252.162 30.0872 273.576 18.7643 296.946 11.3216C356.88 -7.74187 397.169 -1.11515 431.636 33.5113C444.932 46.8591 456.561 63.4222 468.867 80.9553C479.756 96.4459 491.001 112.464 504.868 128.658C506.206 130.218 507.674 131.813 509.227 133.371C516.76 140.941 525.753 147.449 535.247 154.336C545.393 161.69 555.871 169.282 565.281 178.741C576.553 190.056 584.441 202.311 589.382 216.167C604.671 258.999 590.22 285.028 576.258 310.189C570.566 320.444 564.694 331.033 560.437 343.361C555.016 359.093 553.425 376.041 551.728 393.999C549.149 421.442 546.477 449.824 529.597 475.814C497.105 525.839 446.029 529.934 410.443 528.673C399.021 528.278 388.502 526.867 378.33 525.511C357.178 522.685 338.919 520.25 320.063 528.222C314.428 530.604 307.834 536.883 301.466 542.957C293.821 550.244 285.902 557.779 276.2 562.7C241.077 580.54 187.361 587.346 146.508 562.379C140.236 558.5 134.513 553.989 129.493 548.957Z" stroke="#00A3A3" stroke-miterlimit="10" stroke-dasharray="25 25"/>
</svg>
