<svg width="48" height="48" viewBox="0 0 48 48" fill="none" xmlns="http://www.w3.org/2000/svg">
<path d="M48 24C48 10.7452 37.2548 0 24 0C10.7452 0 0 10.7452 0 24C0 37.2548 10.7452 48 24 48C37.2548 48 48 37.2548 48 24Z" fill="#FFC800"/>
<path d="M34.3398 18.2898C34.0098 14.8558 31.0458 13.7048 27.2998 13.3768V8.61182H24.3998V13.2498C23.6388 13.2498 22.8588 13.2638 22.0858 13.2808V8.61182H19.1858V13.3728C18.5578 13.3848 17.9398 13.3978 17.3398 13.3978V13.3828H13.3398V16.4828C13.3398 16.4828 15.4808 16.4418 15.4398 16.4828C15.8287 16.4348 16.2208 16.5407 16.5325 16.778C16.8442 17.0154 17.0507 17.3652 17.1078 17.7528V23.1808C17.2102 23.1808 17.3124 23.1878 17.4138 23.2018H17.1138V30.8018C17.1057 30.9365 17.071 31.0682 17.0118 31.1894C16.9526 31.3106 16.8701 31.4189 16.7689 31.5081C16.6677 31.5974 16.5498 31.6657 16.4222 31.7092C16.2945 31.7528 16.1595 31.7706 16.0248 31.7618C16.0618 31.7948 13.9178 31.7618 13.9178 31.7618L13.3398 35.2208H17.1138C17.8138 35.2208 18.5068 35.2328 19.1838 35.2368V40.0548H22.0838V35.2888C22.8778 35.3048 23.6468 35.3118 24.3998 35.3118V40.0568H27.2998V35.2478C32.1738 34.9688 35.5888 33.7398 36.0118 29.1618C36.3548 25.4758 34.6208 23.8288 31.8538 23.1618C32.7483 22.7385 33.4774 22.0309 33.9271 21.1495C34.3769 20.268 34.522 19.2625 34.3398 18.2898ZM30.2828 28.5898C30.2828 32.1898 24.1188 31.7818 22.1518 31.7818V25.3978C24.1168 25.4018 30.2808 24.8378 30.2808 28.5908L30.2828 28.5898ZM28.9328 19.5828C28.9328 22.8588 23.7878 22.4748 22.1508 22.4768V16.6898C23.7888 16.6898 28.9338 16.1688 28.9318 19.5838L28.9328 19.5828Z" fill="white"/>
<path d="M17.0273 23.0498H17.4473V23.3598H17.0273V23.0498Z" fill="white"/>
</svg>
