<svg width="145" height="144" viewBox="0 0 145 144" fill="none" xmlns="http://www.w3.org/2000/svg">
<g opacity="0.15">
<path d="M129.311 115.601L128.598 115.056C138.087 102.597 143.104 87.7139 143.104 72.0085C143.104 47.6785 130.863 25.2949 110.357 12.1316L110.844 11.3765C131.61 24.6992 144.002 47.3681 144.002 72.0085C144.002 87.9069 138.917 102.983 129.311 115.601Z" fill="#00BABA"/>
<path d="M72.0043 144C32.3021 144 0 111.7 0 72C0 32.3002 32.3021 0 72.0043 0V0.897686C32.7971 0.897686 0.906138 32.7951 0.906138 71.9916C0.906138 111.196 32.8055 143.086 72.0043 143.086C83.8512 143.086 95.5806 140.116 105.917 134.495L106.345 135.283C95.8742 140.996 83.9938 144 72.0043 144Z" fill="#00BABA"/>
<path d="M37.9296 127.422C18.5315 115.475 6.95312 94.7527 6.95312 72H8.757C8.757 94.1235 20.0166 114.267 38.8776 125.887L37.9296 127.422Z" fill="#00BABA"/>
<path d="M72.0066 137.054C64.8749 137.054 57.8692 135.904 51.1738 133.647L51.7528 131.944C58.2635 134.142 65.0763 135.258 72.0149 135.258C104.594 135.258 131.652 110.853 134.933 78.4854L136.728 78.6699C133.339 111.943 105.517 137.054 72.0066 137.054Z" fill="#00BABA"/>
<path d="M134.445 61.8987C132.088 47.2252 124.554 33.7766 113.218 24.0362C101.766 14.1868 87.1251 8.76706 72.006 8.76706C59.7984 8.76706 47.9515 12.2488 37.7406 18.843C25.8434 26.528 16.7653 38.1057 12.1759 51.4452L10.4727 50.858C15.1879 37.1409 24.5262 25.2359 36.759 17.3329C47.2635 10.5541 59.446 6.97168 71.9976 6.97168C87.553 6.97168 102.605 12.5508 114.385 22.6771C126.039 32.6943 133.791 46.5289 136.216 61.6219L134.445 61.8987Z" fill="#00BABA"/>
<path d="M72.0024 118.982C46.0936 118.982 25.0176 97.9073 25.0176 72C25.0176 61.513 28.3988 51.5964 34.7837 43.3242L36.21 44.4233C30.0684 52.385 26.8215 61.9157 26.8215 72C26.8215 96.9089 47.0921 117.178 72.0024 117.178C76.424 117.178 80.7953 116.541 84.982 115.282L85.5022 117.011C81.1393 118.328 76.5918 118.982 72.0024 118.982Z" fill="#00BABA"/>
<path d="M103.734 106.649L102.518 105.323C111.839 96.7827 117.184 84.6429 117.184 72.0081C117.184 63.115 114.599 54.5072 109.716 47.1159L111.218 46.126C116.303 53.8109 118.987 62.7626 118.987 72.0164C118.979 85.1462 113.425 97.7727 103.734 106.649Z" fill="#00BABA"/>
<path d="M100.111 36.6292C92.048 30.2112 82.3238 26.8217 72.0039 26.8217C62.951 26.8217 54.2168 29.4897 46.7412 34.5402L45.7344 33.0469C53.5037 27.7949 62.5902 25.0264 72.0039 25.0264C82.7433 25.0264 92.8535 28.55 101.235 35.2282L100.111 36.6292Z" fill="#00BABA"/>
<path d="M72.0045 110.911C65.6784 110.911 59.3941 109.359 53.8398 106.423L54.2594 105.625C59.6878 108.495 65.821 110.013 71.9961 110.013C89.0533 110.013 104.122 98.5446 108.644 82.1177L109.508 82.361C104.894 99.1738 89.4644 110.911 72.0045 110.911Z" fill="#00BABA"/>
<path d="M44.4921 99.5264C37.1423 92.1771 33.0898 82.4032 33.0898 72.0084C33.0898 50.556 50.5414 33.0972 72.0034 33.0972C93.457 33.0972 110.917 50.556 110.917 72.0084H110.019C110.019 51.051 92.9703 34.0032 72.0117 34.0032C51.0531 34.0032 34.0044 51.051 34.0044 72.0084C34.0044 82.1599 37.9561 91.7073 45.1465 98.8888L44.4921 99.5264Z" fill="#00BABA"/>
<path d="M72.0025 96.2042C58.6537 96.2042 47.7969 85.348 47.7969 72.0001C47.7969 58.6521 58.6537 47.7959 72.0025 47.7959V49.5997C59.6522 49.5997 49.6008 59.6505 49.6008 72.0001C49.6008 84.3496 59.6522 94.4004 72.0025 94.4004C84.3528 94.4004 94.4041 84.3496 94.4041 72.0001H96.208C96.1997 85.348 85.3428 96.2042 72.0025 96.2042Z" fill="#00BABA"/>
<path d="M72.0041 84.0308C65.3675 84.0308 59.9727 78.6362 59.9727 72H60.8704C60.8704 78.1328 65.8625 83.1247 71.9957 83.1247C78.1289 83.1247 83.1211 78.1328 83.1211 72C83.1211 65.8672 78.1289 60.8753 71.9957 60.8753C68.5893 60.8753 65.4178 62.4022 63.2867 65.0701L62.582 64.508C64.8809 61.622 68.3125 59.9692 71.9957 59.9692C78.6323 59.9692 84.0272 65.3638 84.0272 72C84.0272 78.6362 78.6323 84.0308 72.0041 84.0308Z" fill="#00BABA"/>
</g>
</svg>
