<svg width="128" height="128" viewBox="0 0 128 128" fill="none" xmlns="http://www.w3.org/2000/svg">
<g filter="url(#filter0_d_5871_26307)">
<path d="M64 108C88.3005 108 108 88.3005 108 64C108 39.6995 88.3005 20 64 20C39.6995 20 20 39.6995 20 64C20 88.3005 39.6995 108 64 108Z" fill="#4A5053"/>
</g>
<path d="M63.9961 34.6665V56.3487L82.3221 64.5374L63.9961 34.6665Z" fill="white" fill-opacity="0.602"/>
<path d="M63.9946 34.6665L45.666 64.5374L63.9946 56.3487V34.6665Z" fill="white"/>
<path d="M63.9961 78.5888V93.3215L82.3342 67.9507L63.9961 78.5888Z" fill="white" fill-opacity="0.602"/>
<path d="M63.9946 93.3215V78.5866L45.666 67.9507L63.9946 93.3215Z" fill="white"/>
<path d="M63.9961 75.1787L82.3221 64.538L63.9961 56.354V75.1787Z" fill="white" fill-opacity="0.2"/>
<path d="M45.666 64.538L63.9946 75.1787V56.354L45.666 64.538Z" fill="white" fill-opacity="0.602"/>
<defs>
<filter id="filter0_d_5871_26307" x="0" y="0" width="128" height="128" filterUnits="userSpaceOnUse" color-interpolation-filters="sRGB">
<feFlood flood-opacity="0" result="BackgroundImageFix"/>
<feColorMatrix in="SourceAlpha" type="matrix" values="0 0 0 0 0 0 0 0 0 0 0 0 0 0 0 0 0 0 127 0" result="hardAlpha"/>
<feOffset/>
<feGaussianBlur stdDeviation="10"/>
<feComposite in2="hardAlpha" operator="out"/>
<feColorMatrix type="matrix" values="0 0 0 0 0.270588 0 0 0 0 0.972549 0 0 0 0 0.956863 0 0 0 1 0"/>
<feBlend mode="normal" in2="BackgroundImageFix" result="effect1_dropShadow_5871_26307"/>
<feBlend mode="normal" in="SourceGraphic" in2="effect1_dropShadow_5871_26307" result="shape"/>
</filter>
</defs>
</svg>
