<svg width="48" height="48" viewBox="0 0 48 48" fill="none" xmlns="http://www.w3.org/2000/svg">
<path d="M48 24C48 10.7452 37.2548 0 24 0C10.7452 0 0 10.7452 0 24C0 37.2548 10.7452 48 24 48C37.2548 48 48 37.2548 48 24Z" fill="#4A5053"/>
<path d="M33.9257 10.1191H38.0828L29.4314 20.3929C26.2983 24.1117 21.2188 24.1117 18.084 20.3929L9.42969 10.1191H13.5903L20.1617 17.9237C20.5855 18.4734 21.1298 18.9186 21.7527 19.2249C22.3756 19.5312 23.0604 19.6905 23.7545 19.6905C24.4487 19.6905 25.1335 19.5312 25.7564 19.2249C26.3793 18.9186 26.9236 18.4734 27.3474 17.9237L33.9257 10.1191Z" fill="white"/>
<path d="M13.5281 38.6878H9.36523L18.0789 28.3507C21.2144 24.6318 26.2972 24.6318 29.435 28.3507L38.1487 38.6878H33.9887L27.3549 30.8204C26.9306 30.2706 26.3859 29.8254 25.7626 29.5191C25.1393 29.2128 24.454 29.0536 23.7595 29.0536C23.065 29.0536 22.3798 29.2128 21.7565 29.5191C21.1332 29.8254 20.5884 30.2706 20.1641 30.8204L13.5281 38.6878Z" fill="white"/>
</svg>
