<svg width="48" height="48" viewBox="0 0 48 48" fill="none" xmlns="http://www.w3.org/2000/svg">
<path d="M24 0C37.2542 0 48 10.7458 48 24C48 37.2542 37.2538 48 24 48C10.7462 48 0 37.2571 0 24C0 10.7429 10.7443 0 24 0Z" fill="#53AE94"/>
<path d="M26.9613 20.8021V17.2318H35.1256V11.792H12.8939V17.2318H21.0592V20.7992C14.4232 21.104 9.43359 22.4183 9.43359 23.9927C9.43359 25.5671 14.4256 26.8813 21.0592 27.188V38.6241H26.9632V27.1871C33.5872 26.8813 38.5667 25.568 38.5667 23.9951C38.5667 22.4221 33.5872 21.1088 26.9632 20.8031L26.9613 20.8021ZM26.9632 26.2184V26.2155C26.7966 26.2261 25.9408 26.2775 24.0352 26.2775C22.5117 26.2775 21.4398 26.2343 21.0621 26.2146V26.2194C15.1994 25.9597 10.8232 24.9387 10.8232 23.7171C10.8232 22.4955 15.1998 21.476 21.0621 21.2159V25.2023C21.4461 25.2287 22.5443 25.2935 24.0602 25.2935C25.8808 25.2935 26.7962 25.2176 26.9642 25.2023V21.2159C32.8154 21.4765 37.1814 22.4984 37.1814 23.7157C37.1814 24.933 32.8134 25.9554 26.9642 26.216" fill="white"/>
</svg>
